<svg width="83" height="44" viewBox="0 0 83 44" fill="none" xmlns="http://www.w3.org/2000/svg">
<path d="M46.4403 2.07568H36.5594C34.8878 2.11423 33.562 3.52479 33.5951 5.22947V20.021C33.591 20.843 34.0585 21.5916 34.7907 21.9354C35.4941 22.2385 36.3058 22.1012 36.8756 21.5828L41.4999 17.2904L46.1241 21.5828C46.4759 21.9167 46.9379 22.1037 47.4185 22.1067C47.6906 22.1044 47.9595 22.0461 48.209 21.9354C48.9412 21.5916 49.4087 20.843 49.4046 20.021V5.22947C49.4377 3.52479 48.1119 2.11423 46.4403 2.07568Z" fill="black"/>
<path d="M16.0867 32.0486V24.7759H18.6294C19.136 24.7759 19.5538 24.8635 19.8829 25.0386C20.212 25.2115 20.457 25.4447 20.618 25.7382C20.779 26.0294 20.8595 26.3526 20.8595 26.7077C20.8595 27.0202 20.8038 27.2782 20.6926 27.4818C20.5837 27.6854 20.4392 27.8464 20.2593 27.9648C20.0818 28.0831 19.8888 28.1707 19.6805 28.2276V28.2986C19.903 28.3128 20.1267 28.3909 20.3517 28.533C20.5766 28.675 20.7648 28.8786 20.9163 29.1438C21.0678 29.4089 21.1436 29.7332 21.1436 30.1168C21.1436 30.4813 21.0607 30.8092 20.895 31.1004C20.7293 31.3916 20.4677 31.6224 20.1102 31.7929C19.7527 31.9634 19.2875 32.0486 18.7146 32.0486H16.0867ZM16.9674 31.2673H18.7146C19.2899 31.2673 19.6982 31.1561 19.9397 30.9335C20.1836 30.7086 20.3055 30.4364 20.3055 30.1168C20.3055 29.8706 20.2427 29.6433 20.1173 29.4349C19.9918 29.2242 19.8131 29.0562 19.5811 28.9307C19.349 28.8028 19.0744 28.7389 18.7572 28.7389H16.9674V31.2673ZM16.9674 27.9719H18.6009C18.8661 27.9719 19.1052 27.9198 19.3183 27.8156C19.5337 27.7115 19.7042 27.5647 19.8296 27.3753C19.9575 27.1859 20.0214 26.9634 20.0214 26.7077C20.0214 26.3881 19.9101 26.117 19.6876 25.8945C19.4651 25.6696 19.1123 25.5571 18.6294 25.5571H16.9674V27.9719ZM24.6929 32.1622C24.2005 32.1622 23.7684 32.045 23.3968 31.8107C23.0274 31.5763 22.7386 31.2484 22.5303 30.827C22.3243 30.4056 22.2213 29.9132 22.2213 29.3497C22.2213 28.7815 22.3243 28.2856 22.5303 27.8618C22.7386 27.438 23.0274 27.109 23.3968 26.8746C23.7684 26.6402 24.2005 26.523 24.6929 26.523C25.1853 26.523 25.6162 26.6402 25.9855 26.8746C26.3572 27.109 26.646 27.438 26.852 27.8618C27.0603 28.2856 27.1645 28.7815 27.1645 29.3497C27.1645 29.9132 27.0603 30.4056 26.852 30.827C26.646 31.2484 26.3572 31.5763 25.9855 31.8107C25.6162 32.045 25.1853 32.1622 24.6929 32.1622ZM24.6929 31.4094C25.067 31.4094 25.3747 31.3135 25.6162 31.1217C25.8577 30.93 26.0364 30.6778 26.1524 30.3653C26.2684 30.0528 26.3264 29.7143 26.3264 29.3497C26.3264 28.9851 26.2684 28.6454 26.1524 28.3305C26.0364 28.0157 25.8577 27.7612 25.6162 27.567C25.3747 27.3729 25.067 27.2759 24.6929 27.2759C24.3189 27.2759 24.0111 27.3729 23.7696 27.567C23.5281 27.7612 23.3494 28.0157 23.2334 28.3305C23.1174 28.6454 23.0594 28.9851 23.0594 29.3497C23.0594 29.7143 23.1174 30.0528 23.2334 30.3653C23.3494 30.6778 23.5281 30.93 23.7696 31.1217C24.0111 31.3135 24.3189 31.4094 24.6929 31.4094ZM30.6597 32.1622C30.1673 32.1622 29.7352 32.045 29.3635 31.8107C28.9942 31.5763 28.7054 31.2484 28.4971 30.827C28.2911 30.4056 28.1881 29.9132 28.1881 29.3497C28.1881 28.7815 28.2911 28.2856 28.4971 27.8618C28.7054 27.438 28.9942 27.109 29.3635 26.8746C29.7352 26.6402 30.1673 26.523 30.6597 26.523C31.1521 26.523 31.583 26.6402 31.9523 26.8746C32.324 27.109 32.6128 27.438 32.8188 27.8618C33.0271 28.2856 33.1313 28.7815 33.1313 29.3497C33.1313 29.9132 33.0271 30.4056 32.8188 30.827C32.6128 31.2484 32.324 31.5763 31.9523 31.8107C31.583 32.045 31.1521 32.1622 30.6597 32.1622ZM30.6597 31.4094C31.0338 31.4094 31.3415 31.3135 31.583 31.1217C31.8245 30.93 32.0032 30.6778 32.1192 30.3653C32.2352 30.0528 32.2932 29.7143 32.2932 29.3497C32.2932 28.9851 32.2352 28.6454 32.1192 28.3305C32.0032 28.0157 31.8245 27.7612 31.583 27.567C31.3415 27.3729 31.0338 27.2759 30.6597 27.2759C30.2857 27.2759 29.9779 27.3729 29.7364 27.567C29.4949 27.7612 29.3162 28.0157 29.2002 28.3305C29.0842 28.6454 29.0262 28.9851 29.0262 29.3497C29.0262 29.7143 29.0842 30.0528 29.2002 30.3653C29.3162 30.6778 29.4949 30.93 29.7364 31.1217C29.9779 31.3135 30.2857 31.4094 30.6597 31.4094ZM35.1919 30.0599L35.1776 29.023H35.3481L37.7345 26.594H38.7714L36.2288 29.1651H36.1578L35.1919 30.0599ZM34.4106 32.0486V24.7759H35.2487V32.0486H34.4106ZM37.8765 32.0486L35.7458 29.3497L36.3424 28.7673L38.9419 32.0486H37.8765ZM39.8501 32.0486V26.594H40.6597V27.4463H40.7307C40.8444 27.1551 41.0278 26.929 41.2812 26.768C41.5345 26.6047 41.8387 26.523 42.1938 26.523C42.5537 26.523 42.8531 26.6047 43.0922 26.768C43.3337 26.929 43.5219 27.1551 43.6569 27.4463H43.7137C43.8534 27.1646 44.0629 26.9409 44.3422 26.7751C44.6216 26.6071 44.9566 26.523 45.3472 26.523C45.8349 26.523 46.2338 26.6757 46.5439 26.9811C46.8541 27.2841 47.0091 27.7564 47.0091 28.398V32.0486H46.1711V28.398C46.1711 27.9956 46.061 27.7079 45.8408 27.5351C45.6206 27.3623 45.3614 27.2759 45.0631 27.2759C44.6796 27.2759 44.3825 27.3919 44.1718 27.6239C43.9611 27.8535 43.8557 28.1447 43.8557 28.4974V32.0486H43.0035V28.3128C43.0035 28.0027 42.9028 27.7529 42.7016 27.5635C42.5004 27.3717 42.2412 27.2759 41.9239 27.2759C41.7061 27.2759 41.5025 27.3339 41.3131 27.4499C41.1261 27.5659 40.9746 27.7269 40.8586 27.9328C40.7449 28.1364 40.6881 28.372 40.6881 28.6395V32.0486H39.8501ZM50.1466 32.1764C49.8009 32.1764 49.4872 32.1113 49.2055 31.9811C48.9238 31.8485 48.7001 31.658 48.5344 31.4094C48.3686 31.1584 48.2858 30.8554 48.2858 30.5003C48.2858 30.1878 48.3473 29.9345 48.4704 29.7403C48.5935 29.5438 48.7581 29.39 48.964 29.2787C49.17 29.1674 49.3973 29.0846 49.6459 29.0301C49.8968 28.9733 50.1489 28.9283 50.4023 28.8952C50.7337 28.8526 51.0024 28.8206 51.2084 28.7993C51.4167 28.7756 51.5682 28.7366 51.6629 28.6821C51.76 28.6277 51.8085 28.533 51.8085 28.398V28.3696C51.8085 28.0192 51.7126 27.747 51.5209 27.5528C51.3315 27.3587 51.0438 27.2617 50.6579 27.2617C50.2578 27.2617 49.9442 27.3492 49.7169 27.5244C49.4896 27.6996 49.3298 27.8867 49.2375 28.0855L48.442 27.8014C48.5841 27.47 48.7735 27.2119 49.0102 27.0273C49.2493 26.8403 49.5097 26.71 49.7915 26.6367C50.0756 26.5609 50.3549 26.523 50.6295 26.523C50.8047 26.523 51.0059 26.5443 51.2332 26.5869C51.4629 26.6272 51.6842 26.7112 51.8973 26.8391C52.1127 26.9669 52.2915 27.1599 52.4335 27.4179C52.5756 27.676 52.6466 28.0216 52.6466 28.4548V32.0486H51.8085V31.3099H51.7659C51.7091 31.4283 51.6144 31.555 51.4818 31.6899C51.3492 31.8249 51.1729 31.9397 50.9527 32.0344C50.7325 32.1291 50.4638 32.1764 50.1466 32.1764ZM50.2744 31.4236C50.6059 31.4236 50.8852 31.3585 51.1125 31.2283C51.3421 31.0981 51.5149 30.93 51.6309 30.724C51.7493 30.518 51.8085 30.3014 51.8085 30.0742V29.3071C51.773 29.3497 51.6949 29.3888 51.5741 29.4243C51.4558 29.4574 51.3184 29.487 51.1622 29.5131C51.0083 29.5367 50.858 29.5581 50.7112 29.577C50.5668 29.5936 50.4496 29.6078 50.3596 29.6196C50.1418 29.648 49.9382 29.6942 49.7488 29.7581C49.5618 29.8197 49.4103 29.9132 49.2943 30.0386C49.1807 30.1617 49.1238 30.3298 49.1238 30.5429C49.1238 30.8341 49.2316 31.0543 49.447 31.2034C49.6648 31.3502 49.9406 31.4236 50.2744 31.4236ZM54.1762 32.0486V26.594H54.9859V27.4179H55.0427C55.1421 27.148 55.3221 26.929 55.5825 26.7609C55.8429 26.5929 56.1365 26.5088 56.4632 26.5088C56.5247 26.5088 56.6017 26.51 56.694 26.5124C56.7863 26.5147 56.8561 26.5183 56.9035 26.523V27.3753C56.8751 27.3682 56.81 27.3575 56.7082 27.3433C56.6088 27.3268 56.5034 27.3185 56.3921 27.3185C56.127 27.3185 55.8902 27.3741 55.6819 27.4854C55.4759 27.5943 55.3126 27.7458 55.1919 27.9399C55.0735 28.1317 55.0143 28.3507 55.0143 28.5969V32.0486H54.1762ZM58.6782 30.0599L58.664 29.023H58.8344L61.2208 26.594H62.2577L59.7151 29.1651H59.6441L58.6782 30.0599ZM57.8969 32.0486V24.7759H58.735V32.0486H57.8969ZM61.3628 32.0486L59.2322 29.3497L59.8287 28.7673L62.4282 32.0486H61.3628ZM67.2 27.8156L66.4472 28.0287C66.3998 27.9032 66.33 27.7813 66.2377 27.6629C66.1477 27.5422 66.0246 27.4428 65.8683 27.3646C65.7121 27.2865 65.512 27.2474 65.2682 27.2474C64.9344 27.2474 64.6562 27.3244 64.4337 27.4783C64.2135 27.6298 64.1034 27.8227 64.1034 28.0571C64.1034 28.2654 64.1792 28.43 64.3307 28.5507C64.4822 28.6715 64.719 28.7721 65.0409 28.8526L65.8506 29.0514C66.3383 29.1698 66.7017 29.3509 66.9408 29.5947C67.1799 29.8362 67.2994 30.1475 67.2994 30.5287C67.2994 30.8412 67.2095 31.1206 67.0296 31.3668C66.852 31.613 66.6034 31.8071 66.2838 31.9492C65.9642 32.0912 65.5925 32.1622 65.1688 32.1622C64.6124 32.1622 64.152 32.0415 63.7874 31.8C63.4228 31.5585 63.192 31.2058 63.0949 30.7418L63.8904 30.5429C63.9661 30.8365 64.1093 31.0566 64.32 31.2034C64.5331 31.3502 64.8113 31.4236 65.1546 31.4236C65.5452 31.4236 65.8553 31.3407 66.085 31.175C66.317 31.0069 66.433 30.8057 66.433 30.5713C66.433 30.3819 66.3667 30.2233 66.2341 30.0955C66.1015 29.9653 65.8979 29.8682 65.6233 29.8043L64.7142 29.5912C64.2147 29.4728 63.8477 29.2894 63.6134 29.0408C63.3814 28.7898 63.2654 28.4761 63.2654 28.0997C63.2654 27.792 63.3518 27.5197 63.5246 27.283C63.6998 27.0462 63.9377 26.8604 64.2384 26.7254C64.5414 26.5905 64.8847 26.523 65.2682 26.523C65.808 26.523 66.2317 26.6414 66.5395 26.8781C66.8496 27.1149 67.0698 27.4274 67.2 27.8156Z" fill="black"/>
</svg>
