<svg width="28" height="28" viewBox="0 0 28 28" fill="none" xmlns="http://www.w3.org/2000/svg">
<path fill-rule="evenodd" clip-rule="evenodd" d="M5.89377 5.89377C10.394 1.39355 17.6706 1.33032 22.2483 5.75166C26.6697 10.3294 26.6064 17.606 22.1062 22.1062C17.606 26.6064 10.3294 26.6697 5.75166 22.2483C1.33032 17.6706 1.39355 10.394 5.89377 5.89377ZM19.3151 18.1417C19.3151 17.8306 19.1909 17.5324 18.97 17.3133L15.645 14L18.97 10.6867C19.2659 10.3907 19.3815 9.95939 19.2732 9.55513C19.1649 9.15088 18.8491 8.83512 18.4448 8.7268C18.0406 8.61848 17.6093 8.73406 17.3133 9.02999L14 12.355L10.6867 9.02999C10.3907 8.73406 9.95939 8.61848 9.55513 8.7268C9.15088 8.83512 8.83512 9.15088 8.7268 9.55513C8.61848 9.95939 8.73406 10.3907 9.02999 10.6867L12.355 14L9.02999 17.3133C8.80913 17.5324 8.68489 17.8306 8.68489 18.1417C8.68489 18.4527 8.80913 18.7509 9.02999 18.97C9.25016 19.1884 9.54822 19.3101 9.85833 19.3083C10.1684 19.3101 10.4665 19.1884 10.6867 18.97L14 15.645L17.3133 18.97C17.5335 19.1884 17.8316 19.3101 18.1417 19.3083C18.4518 19.3101 18.7498 19.1884 18.97 18.97C19.1909 18.7509 19.3151 18.4527 19.3151 18.1417Z" fill="black"/>
</svg>
