<svg width="83" height="44" viewBox="0 0 83 44" fill="none" xmlns="http://www.w3.org/2000/svg">
<path d="M49.6025 18.6798C49.6025 17.8172 49.2498 16.9897 48.6209 16.3795C47.9919 15.7693 47.1391 15.4271 46.25 15.4271C43.4969 15.4271 39.6161 15.4271 36.8631 15.4271C35.974 15.4271 35.1211 15.7693 34.4922 16.3795C33.8633 16.9897 33.5106 17.8172 33.5106 18.6798V21.9325H49.6025C49.6025 21.9325 49.6025 20.8227 49.6025 18.6798ZM46.9205 10.2227H49.6025C50.3132 10.2227 50.9958 10.4972 51.4986 10.9852C52.0015 11.4731 52.2845 12.1353 52.2845 12.8249V16.7282H50.4916C49.7379 15.1903 48.122 14.126 46.25 14.126H45.1035C46.2178 13.1723 46.9205 11.7762 46.9205 10.2227ZM32.6215 16.7282H30.8286C30.8286 16.7282 30.8286 14.636 30.8286 12.8249C30.8286 12.1353 31.1116 11.4731 31.6144 10.9852C32.1173 10.4972 32.7999 10.2227 33.5106 10.2227H36.1926C36.1926 11.7762 36.8953 13.1723 38.0096 14.126H36.8631C34.991 14.126 33.3752 15.189 32.6215 16.7282ZM41.5565 6.31946C43.7772 6.31946 45.5795 8.06812 45.5795 10.2227C45.5795 12.3773 43.7772 14.126 41.5565 14.126C39.3359 14.126 37.5336 12.3773 37.5336 10.2227C37.5336 8.06812 39.3359 6.31946 41.5565 6.31946ZM36.3629 8.91643C36.3066 8.92033 36.2502 8.92163 36.1926 8.92163C34.7121 8.92163 33.5106 7.75586 33.5106 6.31946C33.5106 4.88306 34.7121 3.71729 36.1926 3.71729C37.4719 3.71729 38.5433 4.58901 38.8102 5.75218C37.6154 6.44566 36.7209 7.57631 36.3629 8.91643ZM44.3029 5.75218C44.5697 4.58901 45.6412 3.71729 46.9205 3.71729C48.4009 3.71729 49.6025 4.88306 49.6025 6.31946C49.6025 7.75586 48.4009 8.92163 46.9205 8.92163C46.8628 8.92163 46.8065 8.92033 46.7502 8.91643C46.3921 7.57631 45.4977 6.44566 44.3029 5.75218Z" fill="black"/>
<path d="M13.846 26.7846L16.0051 32.9068H16.0903L18.2494 26.7846H19.1727L16.5022 34.0574H15.5931L12.9227 26.7846H13.846ZM20.1919 34.0574V28.6028H21.0299V34.0574H20.1919ZM20.618 27.6937C20.4546 27.6937 20.3138 27.6381 20.1954 27.5268C20.0794 27.4156 20.0214 27.2818 20.0214 27.1256C20.0214 26.9693 20.0794 26.8355 20.1954 26.7243C20.3138 26.613 20.4546 26.5574 20.618 26.5574C20.7813 26.5574 20.921 26.613 21.037 26.7243C21.1554 26.8355 21.2146 26.9693 21.2146 27.1256C21.2146 27.2818 21.1554 27.4156 21.037 27.5268C20.921 27.6381 20.7813 27.6937 20.618 27.6937ZM24.8518 34.171C24.3263 34.171 23.8729 34.055 23.4917 33.823C23.113 33.5886 22.8206 33.2619 22.6146 32.8429C22.411 32.4215 22.3092 31.9314 22.3092 31.3727C22.3092 30.814 22.411 30.3216 22.6146 29.8954C22.8206 29.4669 23.107 29.1331 23.474 28.894C23.8433 28.6525 24.2742 28.5318 24.7666 28.5318C25.0507 28.5318 25.3312 28.5792 25.6082 28.6738C25.8852 28.7685 26.1373 28.9224 26.3646 29.1355C26.5919 29.3462 26.773 29.6256 26.9079 29.9736C27.0429 30.3216 27.1104 30.7501 27.1104 31.2591V31.6142H22.9058V30.8898H26.2581C26.2581 30.582 26.1965 30.3074 26.0734 30.0659C25.9527 29.8244 25.7799 29.6338 25.555 29.4942C25.3324 29.3545 25.0696 29.2846 24.7666 29.2846C24.4328 29.2846 24.144 29.3675 23.9001 29.5332C23.6586 29.6966 23.4728 29.9096 23.3426 30.1724C23.2124 30.4352 23.1473 30.7169 23.1473 31.0176V31.5006C23.1473 31.9125 23.2183 32.2617 23.3604 32.5481C23.5048 32.8322 23.7048 33.0489 23.9605 33.198C24.2162 33.3448 24.5133 33.4182 24.8518 33.4182C25.072 33.4182 25.2709 33.3874 25.4484 33.3258C25.6283 33.2619 25.7834 33.1672 25.9136 33.0417C26.0438 32.9139 26.1444 32.7553 26.2155 32.5659L27.0251 32.7932C26.9399 33.0678 26.7967 33.3093 26.5954 33.5176C26.3942 33.7236 26.1456 33.8846 25.8497 34.0006C25.5538 34.1142 25.2211 34.171 24.8518 34.171ZM29.621 34.0574L27.9591 28.6028H28.8398L30.0187 32.779H30.0756L31.2403 28.6028H32.1352L33.2858 32.7648H33.3426L34.5216 28.6028H35.4023L33.7403 34.0574H32.9165L31.7233 29.867H31.6381L30.4449 34.0574H29.621ZM39.4363 34.0574V26.7846H43.8256V27.5659H40.317V30.0233H43.5983V30.8045H40.317V33.2761H43.8824V34.0574H39.4363ZM49.7595 28.6028L47.7425 34.0574H46.8902L44.8731 28.6028H45.7822L47.2879 32.9494H47.3447L48.8504 28.6028H49.7595ZM52.9573 34.171C52.4317 34.171 51.9784 34.055 51.5972 33.823C51.2184 33.5886 50.926 33.2619 50.7201 32.8429C50.5165 32.4215 50.4147 31.9314 50.4147 31.3727C50.4147 30.814 50.5165 30.3216 50.7201 29.8954C50.926 29.4669 51.2125 29.1331 51.5795 28.894C51.9488 28.6525 52.3796 28.5318 52.8721 28.5318C53.1562 28.5318 53.4367 28.5792 53.7137 28.6738C53.9907 28.7685 54.2428 28.9224 54.4701 29.1355C54.6974 29.3462 54.8785 29.6256 55.0134 29.9736C55.1483 30.3216 55.2158 30.7501 55.2158 31.2591V31.6142H51.0113V30.8898H54.3635C54.3635 30.582 54.302 30.3074 54.1789 30.0659C54.0581 29.8244 53.8853 29.6338 53.6604 29.4942C53.4379 29.3545 53.1751 29.2846 52.8721 29.2846C52.5383 29.2846 52.2494 29.3675 52.0056 29.5332C51.7641 29.6966 51.5783 29.9096 51.4481 30.1724C51.3179 30.4352 51.2528 30.7169 51.2528 31.0176V31.5006C51.2528 31.9125 51.3238 32.2617 51.4658 32.5481C51.6102 32.8322 51.8103 33.0489 52.066 33.198C52.3216 33.3448 52.6188 33.4182 52.9573 33.4182C53.1775 33.4182 53.3763 33.3874 53.5539 33.3258C53.7338 33.2619 53.8889 33.1672 54.0191 33.0417C54.1493 32.9139 54.2499 32.7553 54.3209 32.5659L55.1306 32.7932C55.0454 33.0678 54.9021 33.3093 54.7009 33.5176C54.4997 33.7236 54.2511 33.8846 53.9552 34.0006C53.6592 34.1142 53.3266 34.171 52.9573 34.171ZM57.3287 30.7761V34.0574H56.4907V28.6028H57.3003V29.4551H57.3714C57.4992 29.1781 57.6933 28.9556 57.9537 28.7875C58.2142 28.617 58.5503 28.5318 58.9623 28.5318C59.3316 28.5318 59.6547 28.6076 59.9317 28.7591C60.2087 28.9082 60.4242 29.1355 60.578 29.4409C60.7319 29.7439 60.8089 30.1274 60.8089 30.5915V34.0574H59.9708V30.6483C59.9708 30.2198 59.8595 29.886 59.637 29.6469C59.4144 29.4054 59.109 29.2846 58.7208 29.2846C58.4533 29.2846 58.2142 29.3426 58.0035 29.4587C57.7951 29.5747 57.6306 29.7439 57.5099 29.9665C57.3891 30.189 57.3287 30.4589 57.3287 30.7761ZM64.7124 28.6028V29.3131H61.8857V28.6028H64.7124ZM62.7096 27.296H63.5477V32.4949C63.5477 32.7316 63.582 32.9092 63.6507 33.0275C63.7217 33.1435 63.8116 33.2217 63.9205 33.2619C64.0318 33.2998 64.149 33.3187 64.2721 33.3187C64.3644 33.3187 64.4402 33.314 64.4994 33.3045C64.5586 33.2927 64.6059 33.2832 64.6414 33.2761L64.8119 34.029C64.7551 34.0503 64.6758 34.0716 64.574 34.0929C64.4722 34.1166 64.3431 34.1284 64.1869 34.1284C63.9501 34.1284 63.7181 34.0775 63.4909 33.9757C63.266 33.8739 63.0789 33.7188 62.9298 33.5105C62.783 33.3022 62.7096 33.0394 62.7096 32.7221V27.296ZM69.7391 29.8244L68.9862 30.0375C68.9389 29.912 68.8691 29.7901 68.7767 29.6717C68.6868 29.551 68.5637 29.4515 68.4074 29.3734C68.2512 29.2953 68.0511 29.2562 67.8073 29.2562C67.4735 29.2562 67.1953 29.3332 66.9727 29.4871C66.7526 29.6386 66.6425 29.8315 66.6425 30.0659C66.6425 30.2742 66.7182 30.4388 66.8698 30.5595C67.0213 30.6802 67.258 30.7809 67.58 30.8614L68.3896 31.0602C68.8773 31.1786 69.2407 31.3597 69.4798 31.6035C69.719 31.845 69.8385 32.1563 69.8385 32.5375C69.8385 32.85 69.7486 33.1293 69.5686 33.3756C69.3911 33.6218 69.1425 33.8159 68.8229 33.9579C68.5033 34.1 68.1316 34.171 67.7078 34.171C67.1515 34.171 66.691 34.0503 66.3264 33.8088C65.9619 33.5673 65.731 33.2146 65.634 32.7506L66.4294 32.5517C66.5052 32.8453 66.6484 33.0654 66.8591 33.2122C67.0722 33.359 67.3503 33.4324 67.6936 33.4324C68.0843 33.4324 68.3944 33.3495 68.624 33.1838C68.856 33.0157 68.972 32.8145 68.972 32.5801C68.972 32.3907 68.9057 32.2321 68.7732 32.1042C68.6406 31.974 68.437 31.877 68.1624 31.8131L67.2533 31.6C66.7538 31.4816 66.3868 31.2981 66.1524 31.0496C65.9204 30.7986 65.8044 30.4849 65.8044 30.1085C65.8044 29.8007 65.8908 29.5285 66.0637 29.2917C66.2388 29.055 66.4768 28.8692 66.7774 28.7342C67.0805 28.5993 67.4237 28.5318 67.8073 28.5318C68.347 28.5318 68.7708 28.6502 69.0786 28.8869C69.3887 29.1237 69.6089 29.4362 69.7391 29.8244Z" fill="black"/>
</svg>
