<svg width="83" height="44" viewBox="0 0 83 44" fill="none" xmlns="http://www.w3.org/2000/svg">
<path d="M49.6025 19.0199C49.6025 18.1416 49.2498 17.299 48.6209 16.6777C47.9919 16.0564 47.1391 15.7079 46.25 15.7079C43.4969 15.7079 39.6161 15.7079 36.8631 15.7079C35.974 15.7079 35.1211 16.0564 34.4922 16.6777C33.8633 17.299 33.5106 18.1416 33.5106 19.0199V22.3319H49.6025C49.6025 22.3319 49.6025 21.2018 49.6025 19.0199ZM46.9205 10.4088H49.6025C50.3132 10.4088 50.9958 10.6883 51.4986 11.1851C52.0015 11.6819 52.2845 12.3562 52.2845 13.0584V17.0327H50.4916C49.7379 15.4668 48.122 14.3832 46.25 14.3832H45.1035C46.2178 13.4121 46.9205 11.9906 46.9205 10.4088ZM32.6215 17.0327H30.8286C30.8286 17.0327 30.8286 14.9025 30.8286 13.0584C30.8286 12.3562 31.1116 11.6819 31.6144 11.1851C32.1173 10.6883 32.7999 10.4088 33.5106 10.4088H36.1926C36.1926 11.9906 36.8953 13.4121 38.0096 14.3832H36.8631C34.991 14.3832 33.3752 15.4655 32.6215 17.0327ZM41.5565 6.43447C43.7772 6.43447 45.5795 8.21498 45.5795 10.4088C45.5795 12.6027 43.7772 14.3832 41.5565 14.3832C39.3359 14.3832 37.5336 12.6027 37.5336 10.4088C37.5336 8.21498 39.3359 6.43447 41.5565 6.43447ZM36.3629 9.07874C36.3066 9.08271 36.2502 9.08404 36.1926 9.08404C34.7121 9.08404 33.5106 7.89703 33.5106 6.43447C33.5106 4.97192 34.7121 3.78491 36.1926 3.78491C37.4719 3.78491 38.5433 4.67252 38.8102 5.85687C37.6154 6.56298 36.7209 7.71421 36.3629 9.07874ZM44.3029 5.85687C44.5697 4.67252 45.6412 3.78491 46.9205 3.78491C48.4009 3.78491 49.6025 4.97192 49.6025 6.43447C49.6025 7.89703 48.4009 9.08404 46.9205 9.08404C46.8628 9.08404 46.8065 9.08271 46.7502 9.07874C46.3921 7.71421 45.4977 6.56298 44.3029 5.85687Z" fill="black"/>
<path d="M13.846 24.0151L16.0051 30.1373H16.0903L18.2494 24.0151H19.1727L16.5022 31.2878H15.5931L12.9227 24.0151H13.846ZM20.1919 31.2878V25.8333H21.0299V31.2878H20.1919ZM20.618 24.9242C20.4546 24.9242 20.3138 24.8686 20.1954 24.7573C20.0794 24.646 20.0214 24.5123 20.0214 24.356C20.0214 24.1998 20.0794 24.066 20.1954 23.9547C20.3138 23.8435 20.4546 23.7878 20.618 23.7878C20.7813 23.7878 20.921 23.8435 21.037 23.9547C21.1554 24.066 21.2146 24.1998 21.2146 24.356C21.2146 24.5123 21.1554 24.646 21.037 24.7573C20.921 24.8686 20.7813 24.9242 20.618 24.9242ZM24.8518 31.4015C24.3263 31.4015 23.8729 31.2855 23.4917 31.0535C23.113 30.8191 22.8206 30.4924 22.6146 30.0734C22.411 29.652 22.3092 29.1619 22.3092 28.6032C22.3092 28.0445 22.411 27.552 22.6146 27.1259C22.8206 26.6974 23.107 26.3636 23.474 26.1245C23.8433 25.883 24.2742 25.7623 24.7666 25.7623C25.0507 25.7623 25.3312 25.8096 25.6082 25.9043C25.8852 25.999 26.1373 26.1529 26.3646 26.366C26.5919 26.5767 26.773 26.856 26.9079 27.204C27.0429 27.552 27.1104 27.9805 27.1104 28.4895V28.8447H22.9058V28.1202H26.2581C26.2581 27.8125 26.1965 27.5378 26.0734 27.2964C25.9527 27.0549 25.7799 26.8643 25.555 26.7246C25.3324 26.585 25.0696 26.5151 24.7666 26.5151C24.4328 26.5151 24.144 26.598 23.9001 26.7637C23.6586 26.927 23.4728 27.1401 23.3426 27.4029C23.2124 27.6657 23.1473 27.9474 23.1473 28.2481V28.731C23.1473 29.143 23.2183 29.4922 23.3604 29.7786C23.5048 30.0627 23.7048 30.2793 23.9605 30.4285C24.2162 30.5752 24.5133 30.6486 24.8518 30.6486C25.072 30.6486 25.2709 30.6179 25.4484 30.5563C25.6283 30.4924 25.7834 30.3977 25.9136 30.2722C26.0438 30.1444 26.1444 29.9858 26.2155 29.7964L27.0251 30.0236C26.9399 30.2983 26.7967 30.5397 26.5954 30.7481C26.3942 30.954 26.1456 31.115 25.8497 31.231C25.5538 31.3447 25.2211 31.4015 24.8518 31.4015ZM29.621 31.2878L27.9591 25.8333H28.8398L30.0187 30.0094H30.0756L31.2403 25.8333H32.1352L33.2858 29.9952H33.3426L34.5216 25.8333H35.4023L33.7403 31.2878H32.9165L31.7233 27.0975H31.6381L30.4449 31.2878H29.621ZM39.4363 31.2878V24.0151H43.8256V24.7964H40.317V27.2538H43.5983V28.035H40.317V30.5066H43.8824V31.2878H39.4363ZM49.7595 25.8333L47.7425 31.2878H46.8902L44.8731 25.8333H45.7822L47.2879 30.1799H47.3447L48.8504 25.8333H49.7595ZM52.9573 31.4015C52.4317 31.4015 51.9784 31.2855 51.5972 31.0535C51.2184 30.8191 50.926 30.4924 50.7201 30.0734C50.5165 29.652 50.4147 29.1619 50.4147 28.6032C50.4147 28.0445 50.5165 27.552 50.7201 27.1259C50.926 26.6974 51.2125 26.3636 51.5795 26.1245C51.9488 25.883 52.3796 25.7623 52.8721 25.7623C53.1562 25.7623 53.4367 25.8096 53.7137 25.9043C53.9907 25.999 54.2428 26.1529 54.4701 26.366C54.6974 26.5767 54.8785 26.856 55.0134 27.204C55.1483 27.552 55.2158 27.9805 55.2158 28.4895V28.8447H51.0113V28.1202H54.3635C54.3635 27.8125 54.302 27.5378 54.1789 27.2964C54.0581 27.0549 53.8853 26.8643 53.6604 26.7246C53.4379 26.585 53.1751 26.5151 52.8721 26.5151C52.5383 26.5151 52.2494 26.598 52.0056 26.7637C51.7641 26.927 51.5783 27.1401 51.4481 27.4029C51.3179 27.6657 51.2528 27.9474 51.2528 28.2481V28.731C51.2528 29.143 51.3238 29.4922 51.4658 29.7786C51.6102 30.0627 51.8103 30.2793 52.066 30.4285C52.3216 30.5752 52.6188 30.6486 52.9573 30.6486C53.1775 30.6486 53.3763 30.6179 53.5539 30.5563C53.7338 30.4924 53.8889 30.3977 54.0191 30.2722C54.1493 30.1444 54.2499 29.9858 54.3209 29.7964L55.1306 30.0236C55.0454 30.2983 54.9021 30.5397 54.7009 30.7481C54.4997 30.954 54.2511 31.115 53.9552 31.231C53.6592 31.3447 53.3266 31.4015 52.9573 31.4015ZM57.3287 28.0066V31.2878H56.4907V25.8333H57.3003V26.6856H57.3714C57.4992 26.4086 57.6933 26.186 57.9537 26.018C58.2142 25.8475 58.5503 25.7623 58.9623 25.7623C59.3316 25.7623 59.6547 25.838 59.9317 25.9895C60.2087 26.1387 60.4242 26.366 60.578 26.6714C60.7319 26.9744 60.8089 27.3579 60.8089 27.8219V31.2878H59.9708V27.8788C59.9708 27.4502 59.8595 27.1164 59.637 26.8773C59.4144 26.6359 59.109 26.5151 58.7208 26.5151C58.4533 26.5151 58.2142 26.5731 58.0035 26.6891C57.7951 26.8051 57.6306 26.9744 57.5099 27.1969C57.3891 27.4195 57.3287 27.6894 57.3287 28.0066ZM64.7124 25.8333V26.5435H61.8857V25.8333H64.7124ZM62.7096 24.5265H63.5477V29.7253C63.5477 29.9621 63.582 30.1396 63.6507 30.258C63.7217 30.374 63.8116 30.4521 63.9205 30.4924C64.0318 30.5303 64.149 30.5492 64.2721 30.5492C64.3644 30.5492 64.4402 30.5445 64.4994 30.535C64.5586 30.5232 64.6059 30.5137 64.6414 30.5066L64.8119 31.2594C64.7551 31.2807 64.6758 31.302 64.574 31.3234C64.4722 31.347 64.3431 31.3589 64.1869 31.3589C63.9501 31.3589 63.7181 31.308 63.4909 31.2062C63.266 31.1044 63.0789 30.9493 62.9298 30.741C62.783 30.5326 62.7096 30.2698 62.7096 29.9526V24.5265ZM69.7391 27.0549L68.9862 27.268C68.9389 27.1425 68.8691 27.0206 68.7767 26.9022C68.6868 26.7814 68.5637 26.682 68.4074 26.6039C68.2512 26.5258 68.0511 26.4867 67.8073 26.4867C67.4735 26.4867 67.1953 26.5636 66.9727 26.7175C66.7526 26.869 66.6425 27.062 66.6425 27.2964C66.6425 27.5047 66.7182 27.6692 66.8698 27.79C67.0213 27.9107 67.258 28.0113 67.58 28.0918L68.3896 28.2907C68.8773 28.4091 69.2407 28.5902 69.4798 28.834C69.719 29.0755 69.8385 29.3868 69.8385 29.768C69.8385 30.0805 69.7486 30.3598 69.5686 30.606C69.3911 30.8522 69.1425 31.0464 68.8229 31.1884C68.5033 31.3305 68.1316 31.4015 67.7078 31.4015C67.1515 31.4015 66.691 31.2807 66.3264 31.0393C65.9619 30.7978 65.731 30.445 65.634 29.981L66.4294 29.7822C66.5052 30.0757 66.6484 30.2959 66.8591 30.4427C67.0722 30.5895 67.3503 30.6628 67.6936 30.6628C68.0843 30.6628 68.3944 30.58 68.624 30.4143C68.856 30.2462 68.972 30.0449 68.972 29.8106C68.972 29.6212 68.9057 29.4626 68.7732 29.3347C68.6406 29.2045 68.437 29.1074 68.1624 29.0435L67.2533 28.8305C66.7538 28.7121 66.3868 28.5286 66.1524 28.28C65.9204 28.0291 65.8044 27.7154 65.8044 27.339C65.8044 27.0312 65.8908 26.759 66.0637 26.5222C66.2388 26.2855 66.4768 26.0996 66.7774 25.9647C67.0805 25.8297 67.4237 25.7623 67.8073 25.7623C68.347 25.7623 68.7708 25.8806 69.0786 26.1174C69.3887 26.3541 69.6089 26.6666 69.7391 27.0549Z" fill="black"/>
</svg>
