<svg width="83" height="44" viewBox="0 0 83 44" fill="none" xmlns="http://www.w3.org/2000/svg">
<path fill-rule="evenodd" clip-rule="evenodd" d="M31.6189 12.0911C31.6189 6.52631 36.0427 2.01514 41.4998 2.01514C44.1204 2.01514 46.6337 3.07671 48.4867 4.96632C50.3398 6.85594 51.3808 9.4188 51.3808 12.0911C51.3808 17.6559 46.9569 22.1671 41.4998 22.1671C36.0427 22.1671 31.6189 17.6559 31.6189 12.0911ZM42.4879 13.0987H46.4403C46.986 13.0987 47.4284 12.6476 47.4284 12.0911C47.4284 11.5346 46.986 11.0835 46.4403 11.0835H42.4879V7.05313C42.4879 6.49665 42.0456 6.04553 41.4998 6.04553C40.9541 6.04553 40.5118 6.49665 40.5118 7.05313V11.0835H36.5594C36.0137 11.0835 35.5713 11.5346 35.5713 12.0911C35.5713 12.6476 36.0137 13.0987 36.5594 13.0987H40.5118V17.1291C40.5118 17.6856 40.9541 18.1367 41.4998 18.1367C42.0456 18.1367 42.4879 17.6856 42.4879 17.1291V13.0987Z" fill="black"/>
<path d="M19.6636 27.0486H18.7829C18.7309 26.7953 18.6397 26.5727 18.5095 26.381C18.3817 26.1892 18.2254 26.0282 18.0407 25.898C17.8585 25.7654 17.656 25.666 17.4335 25.5997C17.211 25.5334 16.979 25.5003 16.7375 25.5003C16.2971 25.5003 15.8982 25.6116 15.5407 25.8341C15.1856 26.0566 14.9027 26.3845 14.692 26.8178C14.4837 27.251 14.3795 27.7825 14.3795 28.4122C14.3795 29.042 14.4837 29.5734 14.692 30.0067C14.9027 30.4399 15.1856 30.7678 15.5407 30.9903C15.8982 31.2129 16.2971 31.3242 16.7375 31.3242C16.979 31.3242 17.211 31.291 17.4335 31.2247C17.656 31.1584 17.8585 31.0602 18.0407 30.93C18.2254 30.7974 18.3817 30.6352 18.5095 30.4435C18.6397 30.2493 18.7309 30.0268 18.7829 29.7759H19.6636C19.5973 30.1475 19.4766 30.4802 19.3014 30.7737C19.1262 31.0673 18.9084 31.317 18.648 31.523C18.3876 31.7266 18.0952 31.8817 17.7709 31.9882C17.4489 32.0947 17.1044 32.148 16.7375 32.148C16.1172 32.148 15.5656 31.9965 15.0827 31.6935C14.5997 31.3904 14.2197 30.9596 13.9427 30.4009C13.6657 29.8421 13.5273 29.1793 13.5273 28.4122C13.5273 27.6452 13.6657 26.9823 13.9427 26.4236C14.2197 25.8649 14.5997 25.434 15.0827 25.131C15.5656 24.8279 16.1172 24.6764 16.7375 24.6764C17.1044 24.6764 17.4489 24.7297 17.7709 24.8362C18.0952 24.9428 18.3876 25.099 18.648 25.305C18.9084 25.5086 19.1262 25.7572 19.3014 26.0507C19.4766 26.3419 19.5973 26.6745 19.6636 27.0486ZM20.9731 32.0486V26.594H21.7828V27.4179H21.8396C21.939 27.148 22.1189 26.929 22.3794 26.7609C22.6398 26.5929 22.9333 26.5088 23.26 26.5088C23.3216 26.5088 23.3985 26.51 23.4909 26.5124C23.5832 26.5147 23.653 26.5183 23.7004 26.523V27.3753C23.672 27.3682 23.6069 27.3575 23.5051 27.3433C23.4056 27.3268 23.3003 27.3185 23.189 27.3185C22.9239 27.3185 22.6871 27.3741 22.4788 27.4854C22.2728 27.5943 22.1095 27.7458 21.9887 27.9399C21.8704 28.1317 21.8112 28.3507 21.8112 28.5969V32.0486H20.9731ZM26.8147 32.1622C26.2892 32.1622 25.8358 32.0462 25.4546 31.8142C25.0758 31.5798 24.7835 31.2531 24.5775 30.8341C24.3739 30.4127 24.2721 29.9226 24.2721 29.3639C24.2721 28.8052 24.3739 28.3128 24.5775 27.8867C24.7835 27.4581 25.0699 27.1243 25.4369 26.8852C25.8062 26.6438 26.2371 26.523 26.7295 26.523C27.0136 26.523 27.2941 26.5704 27.5711 26.6651C27.8481 26.7598 28.1002 26.9136 28.3275 27.1267C28.5548 27.3374 28.7359 27.6168 28.8708 27.9648C29.0058 28.3128 29.0732 28.7413 29.0732 29.2503V29.6054H24.8687V28.881H28.221C28.221 28.5732 28.1594 28.2986 28.0363 28.0571C27.9156 27.8156 27.7427 27.6251 27.5178 27.4854C27.2953 27.3457 27.0325 27.2759 26.7295 27.2759C26.3957 27.2759 26.1069 27.3587 25.863 27.5244C25.6215 27.6878 25.4357 27.9009 25.3055 28.1636C25.1753 28.4264 25.1102 28.7081 25.1102 29.0088V29.4918C25.1102 29.9037 25.1812 30.2529 25.3232 30.5394C25.4677 30.8234 25.6677 31.0401 25.9234 31.1892C26.1791 31.336 26.4762 31.4094 26.8147 31.4094C27.0349 31.4094 27.2338 31.3786 27.4113 31.317C27.5912 31.2531 27.7463 31.1584 27.8765 31.033C28.0067 30.9051 28.1073 30.7465 28.1784 30.5571L28.988 30.7844C28.9028 31.059 28.7596 31.3005 28.5583 31.5088C28.3571 31.7148 28.1085 31.8758 27.8126 31.9918C27.5167 32.1054 27.184 32.1622 26.8147 32.1622ZM31.9532 32.1764C31.6076 32.1764 31.2939 32.1113 31.0122 31.9811C30.7304 31.8485 30.5067 31.658 30.341 31.4094C30.1753 31.1584 30.0924 30.8554 30.0924 30.5003C30.0924 30.1878 30.154 29.9345 30.2771 29.7403C30.4002 29.5438 30.5647 29.39 30.7707 29.2787C30.9767 29.1674 31.2039 29.0846 31.4525 29.0301C31.7035 28.9733 31.9556 28.9283 32.2089 28.8952C32.5403 28.8526 32.809 28.8206 33.015 28.7993C33.2233 28.7756 33.3749 28.7366 33.4695 28.6821C33.5666 28.6277 33.6151 28.533 33.6151 28.398V28.3696C33.6151 28.0192 33.5193 27.747 33.3275 27.5528C33.1381 27.3587 32.8505 27.2617 32.4646 27.2617C32.0645 27.2617 31.7508 27.3492 31.5235 27.5244C31.2963 27.6996 31.1365 27.8867 31.0441 28.0855L30.2487 27.8014C30.3907 27.47 30.5801 27.2119 30.8169 27.0273C31.056 26.8403 31.3164 26.71 31.5981 26.6367C31.8822 26.5609 32.1615 26.523 32.4362 26.523C32.6114 26.523 32.8126 26.5443 33.0399 26.5869C33.2695 26.6272 33.4909 26.7112 33.7039 26.8391C33.9194 26.9669 34.0981 27.1599 34.2401 27.4179C34.3822 27.676 34.4532 28.0216 34.4532 28.4548V32.0486H33.6151V31.3099H33.5725C33.5157 31.4283 33.421 31.555 33.2884 31.6899C33.1559 31.8249 32.9795 31.9397 32.7593 32.0344C32.5392 32.1291 32.2704 32.1764 31.9532 32.1764ZM32.0811 31.4236C32.4125 31.4236 32.6919 31.3585 32.9191 31.2283C33.1488 31.0981 33.3216 30.93 33.4376 30.724C33.556 30.518 33.6151 30.3014 33.6151 30.0742V29.3071C33.5796 29.3497 33.5015 29.3888 33.3808 29.4243C33.2624 29.4574 33.1251 29.487 32.9688 29.5131C32.815 29.5367 32.6646 29.5581 32.5178 29.577C32.3734 29.5936 32.2562 29.6078 32.1663 29.6196C31.9485 29.648 31.7449 29.6942 31.5555 29.7581C31.3685 29.8197 31.2169 29.9132 31.1009 30.0386C30.9873 30.1617 30.9305 30.3298 30.9305 30.5429C30.9305 30.8341 31.0382 31.0543 31.2536 31.2034C31.4714 31.3502 31.7472 31.4236 32.0811 31.4236ZM38.355 26.594V27.3043H35.5283V26.594H38.355ZM36.3522 25.2872H37.1903V30.4861C37.1903 30.7228 37.2246 30.9004 37.2932 31.0188C37.3643 31.1348 37.4542 31.2129 37.5631 31.2531C37.6744 31.291 37.7916 31.3099 37.9147 31.3099C38.007 31.3099 38.0828 31.3052 38.142 31.2957C38.2011 31.2839 38.2485 31.2744 38.284 31.2673L38.4545 32.0202C38.3976 32.0415 38.3183 32.0628 38.2165 32.0841C38.1147 32.1078 37.9857 32.1196 37.8295 32.1196C37.5927 32.1196 37.3607 32.0687 37.1334 31.9669C36.9085 31.8651 36.7215 31.71 36.5724 31.5017C36.4256 31.2934 36.3522 31.0306 36.3522 30.7134V25.2872ZM41.844 32.1622C41.3184 32.1622 40.8651 32.0462 40.4839 31.8142C40.1051 31.5798 39.8128 31.2531 39.6068 30.8341C39.4032 30.4127 39.3014 29.9226 39.3014 29.3639C39.3014 28.8052 39.4032 28.3128 39.6068 27.8867C39.8128 27.4581 40.0992 27.1243 40.4662 26.8852C40.8355 26.6438 41.2664 26.523 41.7588 26.523C42.0429 26.523 42.3234 26.5704 42.6004 26.6651C42.8774 26.7598 43.1295 26.9136 43.3568 27.1267C43.5841 27.3374 43.7652 27.6168 43.9001 27.9648C44.0351 28.3128 44.1025 28.7413 44.1025 29.2503V29.6054H39.898V28.881H43.2503C43.2503 28.5732 43.1887 28.2986 43.0656 28.0571C42.9449 27.8156 42.772 27.6251 42.5471 27.4854C42.3246 27.3457 42.0618 27.2759 41.7588 27.2759C41.425 27.2759 41.1362 27.3587 40.8923 27.5244C40.6508 27.6878 40.465 27.9009 40.3348 28.1636C40.2046 28.4264 40.1395 28.7081 40.1395 29.0088V29.4918C40.1395 29.9037 40.2105 30.2529 40.3525 30.5394C40.497 30.8234 40.697 31.0401 40.9527 31.1892C41.2084 31.336 41.5055 31.4094 41.844 31.4094C42.0642 31.4094 42.2631 31.3786 42.4406 31.317C42.6205 31.2531 42.7756 31.1584 42.9058 31.033C43.036 30.9051 43.1366 30.7465 43.2077 30.5571L44.0173 30.7844C43.9321 31.059 43.7889 31.3005 43.5876 31.5088C43.3864 31.7148 43.1378 31.8758 42.8419 31.9918C42.546 32.1054 42.2133 32.1622 41.844 32.1622ZM48.6018 32.0486H47.6785L50.349 24.7759H51.2581L53.9285 32.0486H53.0052L50.8319 25.9264H50.7751L48.6018 32.0486ZM48.9427 29.2077H52.6643V29.9889H48.9427V29.2077ZM55.7858 24.7759V32.0486H54.9477V24.7759H55.7858ZM59.6077 32.1622C59.0821 32.1622 58.6288 32.0462 58.2476 31.8142C57.8688 31.5798 57.5764 31.2531 57.3705 30.8341C57.1669 30.4127 57.0651 29.9226 57.0651 29.3639C57.0651 28.8052 57.1669 28.3128 57.3705 27.8867C57.5764 27.4581 57.8629 27.1243 58.2298 26.8852C58.5992 26.6438 59.03 26.523 59.5225 26.523C59.8066 26.523 60.0871 26.5704 60.3641 26.6651C60.6411 26.7598 60.8932 26.9136 61.1205 27.1267C61.3477 27.3374 61.5289 27.6168 61.6638 27.9648C61.7987 28.3128 61.8662 28.7413 61.8662 29.2503V29.6054H57.6617V28.881H61.0139C61.0139 28.5732 60.9524 28.2986 60.8293 28.0571C60.7085 27.8156 60.5357 27.6251 60.3108 27.4854C60.0883 27.3457 59.8255 27.2759 59.5225 27.2759C59.1887 27.2759 58.8998 27.3587 58.656 27.5244C58.4145 27.6878 58.2287 27.9009 58.0985 28.1636C57.9682 28.4264 57.9031 28.7081 57.9031 29.0088V29.4918C57.9031 29.9037 57.9742 30.2529 58.1162 30.5394C58.2606 30.8234 58.4607 31.0401 58.7164 31.1892C58.972 31.336 59.2691 31.4094 59.6077 31.4094C59.8279 31.4094 60.0267 31.3786 60.2043 31.317C60.3842 31.2531 60.5393 31.1584 60.6695 31.033C60.7997 30.9051 60.9003 30.7465 60.9713 30.5571L61.781 30.7844C61.6958 31.059 61.5525 31.3005 61.3513 31.5088C61.1501 31.7148 60.9015 31.8758 60.6056 31.9918C60.3096 32.1054 59.977 32.1622 59.6077 32.1622ZM63.1411 32.0486V26.594H63.9507V27.4179H64.0075C64.107 27.148 64.2869 26.929 64.5473 26.7609C64.8077 26.5929 65.1013 26.5088 65.428 26.5088C65.4896 26.5088 65.5665 26.51 65.6588 26.5124C65.7512 26.5147 65.821 26.5183 65.8683 26.523V27.3753C65.8399 27.3682 65.7748 27.3575 65.673 27.3433C65.5736 27.3268 65.4682 27.3185 65.357 27.3185C65.0918 27.3185 64.8551 27.3741 64.6468 27.4854C64.4408 27.5943 64.2774 27.7458 64.1567 27.9399C64.0383 28.1317 63.9791 28.3507 63.9791 28.5969V32.0486H63.1411ZM69.5757 26.594V27.3043H66.749V26.594H69.5757ZM67.5729 25.2872H68.411V30.4861C68.411 30.7228 68.4453 30.9004 68.5139 31.0188C68.585 31.1348 68.6749 31.2129 68.7838 31.2531C68.8951 31.291 69.0123 31.3099 69.1354 31.3099C69.2277 31.3099 69.3035 31.3052 69.3627 31.2957C69.4218 31.2839 69.4692 31.2744 69.5047 31.2673L69.6752 32.0202C69.6183 32.0415 69.539 32.0628 69.4372 32.0841C69.3354 32.1078 69.2064 32.1196 69.0502 32.1196C68.8134 32.1196 68.5814 32.0687 68.3541 31.9669C68.1292 31.8651 67.9422 31.71 67.7931 31.5017C67.6463 31.2934 67.5729 31.0306 67.5729 30.7134V25.2872Z" fill="black"/>
</svg>
