<svg width="83" height="44" viewBox="0 0 83 44" fill="none" xmlns="http://www.w3.org/2000/svg">
<path d="M50.1825 5.25449C50.1825 4.67411 49.735 4.20361 49.1829 4.20361V6.30537C49.735 6.30537 50.1825 5.83488 50.1825 5.25449Z" fill="black"/>
<path d="M31.1891 6.30537H41.1856V4.20361H31.1891C30.637 4.20361 30.1895 4.67411 30.1895 5.25449C30.1895 5.83488 30.637 6.30537 31.1891 6.30537Z" fill="black"/>
<path d="M49.1827 11.5598H41.1855V13.6616H49.1827C49.7348 13.6616 50.1824 13.1911 50.1824 12.6107C50.1824 12.0303 49.7348 11.5598 49.1827 11.5598Z" fill="black"/>
<path d="M31.1891 13.6616H33.1884V11.5598H31.1891C30.637 11.5598 30.1895 12.0303 30.1895 12.6107C30.1895 13.1911 30.637 13.6616 31.1891 13.6616Z" fill="black"/>
<path d="M49.1829 18.9158H47.1836V21.0175H49.1829C49.735 21.0175 50.1825 20.547 50.1825 19.9667C50.1825 19.3863 49.735 18.9158 49.1829 18.9158Z" fill="black"/>
<path d="M30.1895 19.9667C30.1895 20.547 30.637 21.0175 31.1891 21.0175H39.1863V18.9158H31.1891C30.637 18.9158 30.1895 19.3863 30.1895 19.9667Z" fill="black"/>
<rect x="42.1853" y="2.10181" width="5.99789" height="6.30528" rx="2" fill="black"/>
<rect x="34.188" y="9.45801" width="5.99789" height="6.30528" rx="2" fill="black"/>
<rect x="40.186" y="16.8142" width="5.99789" height="6.30528" rx="2" fill="black"/>
<path d="M30.5154 32.5662V25.2934H34.8762V26.0747H31.3961V28.5321H34.5495V29.3133H31.3961V32.5662H30.5154ZM36.271 32.5662V27.1116H37.109V32.5662H36.271ZM36.6971 26.2025C36.5337 26.2025 36.3929 26.1469 36.2745 26.0356C36.1585 25.9244 36.1005 25.7906 36.1005 25.6343C36.1005 25.4781 36.1585 25.3443 36.2745 25.2331C36.3929 25.1218 36.5337 25.0662 36.6971 25.0662C36.8604 25.0662 37.0001 25.1218 37.1161 25.2331C37.2345 25.3443 37.2937 25.4781 37.2937 25.6343C37.2937 25.7906 37.2345 25.9244 37.1161 26.0356C37.0001 26.1469 36.8604 26.2025 36.6971 26.2025ZM39.4821 25.2934V32.5662H38.644V25.2934H39.4821ZM43.3892 27.1116V27.8218H40.5625V27.1116H43.3892ZM41.3864 25.8048H42.2244V31.0037C42.2244 31.2404 42.2588 31.418 42.3274 31.5363C42.3984 31.6523 42.4884 31.7305 42.5973 31.7707C42.7086 31.8086 42.8258 31.8275 42.9489 31.8275C43.0412 31.8275 43.117 31.8228 43.1761 31.8133C43.2353 31.8015 43.2827 31.792 43.3182 31.7849L43.4886 32.5378C43.4318 32.5591 43.3525 32.5804 43.2507 32.6017C43.1489 32.6253 43.0199 32.6372 42.8636 32.6372C42.6269 32.6372 42.3949 32.5863 42.1676 32.4845C41.9427 32.3827 41.7557 32.2276 41.6065 32.0193C41.4598 31.811 41.3864 31.5482 41.3864 31.2309V25.8048ZM46.8782 32.6798C46.3526 32.6798 45.8993 32.5638 45.5181 32.3318C45.1393 32.0974 44.8469 31.7707 44.641 31.3517C44.4374 30.9303 44.3356 30.4402 44.3356 29.8815C44.3356 29.3228 44.4374 28.8304 44.641 28.4042C44.8469 27.9757 45.1334 27.6419 45.5004 27.4028C45.8697 27.1613 46.3005 27.0406 46.793 27.0406C47.0771 27.0406 47.3576 27.0879 47.6346 27.1826C47.9116 27.2773 48.1637 27.4312 48.391 27.6443C48.6183 27.855 48.7994 28.1343 48.9343 28.4824C49.0692 28.8304 49.1367 29.2589 49.1367 29.7679V30.123H44.9322V29.3985H48.2844C48.2844 29.0908 48.2229 28.8162 48.0998 28.5747C47.979 28.3332 47.8062 28.1426 47.5813 28.003C47.3588 27.8633 47.096 27.7934 46.793 27.7934C46.4592 27.7934 46.1703 27.8763 45.9265 28.042C45.685 28.2054 45.4992 28.4184 45.369 28.6812C45.2388 28.944 45.1737 29.2257 45.1737 29.5264V30.0093C45.1737 30.4213 45.2447 30.7705 45.3867 31.0569C45.5311 31.341 45.7312 31.5576 45.9869 31.7068C46.2425 31.8536 46.5397 31.927 46.8782 31.927C47.0984 31.927 47.2972 31.8962 47.4748 31.8346C47.6547 31.7707 47.8098 31.676 47.94 31.5505C48.0702 31.4227 48.1708 31.2641 48.2418 31.0747L49.0515 31.302C48.9663 31.5766 48.823 31.8181 48.6218 32.0264C48.4206 32.2324 48.172 32.3933 47.8761 32.5093C47.5801 32.623 47.2475 32.6798 46.8782 32.6798ZM50.4116 32.5662V27.1116H51.2212V27.9355H51.2781C51.3775 27.6656 51.5574 27.4466 51.8178 27.2785C52.0782 27.1104 52.3718 27.0264 52.6985 27.0264C52.7601 27.0264 52.837 27.0276 52.9293 27.0299C53.0217 27.0323 53.0915 27.0359 53.1388 27.0406V27.8929C53.1104 27.8858 53.0453 27.8751 52.9435 27.8609C52.8441 27.8443 52.7388 27.836 52.6275 27.836C52.3623 27.836 52.1256 27.8917 51.9173 28.003C51.7113 28.1119 51.5479 28.2634 51.4272 28.4575C51.3088 28.6493 51.2496 28.8682 51.2496 29.1145V32.5662H50.4116Z" fill="black"/>
</svg>
