<svg width="83" height="44" viewBox="0 0 83 44" fill="none" xmlns="http://www.w3.org/2000/svg">
<path d="M27.3612 31.9941V24.7214H29.8185C30.3891 24.7214 30.8555 24.8244 31.2177 25.0304C31.5823 25.234 31.8522 25.5098 32.0273 25.8578C32.2025 26.2058 32.2901 26.594 32.2901 27.0225C32.2901 27.4511 32.2025 27.8405 32.0273 28.1909C31.8545 28.5413 31.587 28.8206 31.2248 29.0289C30.8626 29.2349 30.3986 29.3379 29.8327 29.3379H28.0714V28.5566H29.8043C30.195 28.5566 30.5086 28.4892 30.7454 28.3542C30.9821 28.2193 31.1538 28.037 31.2603 27.8074C31.3692 27.5753 31.4237 27.3137 31.4237 27.0225C31.4237 26.7314 31.3692 26.4709 31.2603 26.2413C31.1538 26.0117 30.9809 25.8317 30.7418 25.7015C30.5027 25.569 30.1855 25.5027 29.7901 25.5027H28.2418V31.9941H27.3612ZM33.5952 31.9941V26.5396H34.4048V27.3635H34.4616C34.5611 27.0936 34.741 26.8746 35.0014 26.7065C35.2618 26.5384 35.5554 26.4544 35.8821 26.4544C35.9437 26.4544 36.0206 26.4556 36.1129 26.4579C36.2053 26.4603 36.2751 26.4638 36.3224 26.4686V27.3208C36.294 27.3137 36.2289 27.3031 36.1271 27.2889C36.0277 27.2723 35.9223 27.264 35.8111 27.264C35.5459 27.264 35.3092 27.3197 35.1009 27.4309C34.8949 27.5398 34.7315 27.6913 34.6108 27.8855C34.4924 28.0772 34.4332 28.2962 34.4332 28.5424V31.9941H33.5952ZM39.3658 32.1078C38.8733 32.1078 38.4413 31.9906 38.0696 31.7562C37.7003 31.5218 37.4115 31.194 37.2031 30.7725C36.9972 30.3511 36.8942 29.8587 36.8942 29.2953C36.8942 28.7271 36.9972 28.2311 37.2031 27.8074C37.4115 27.3836 37.7003 27.0545 38.0696 26.8201C38.4413 26.5858 38.8733 26.4686 39.3658 26.4686C39.8582 26.4686 40.2891 26.5858 40.6584 26.8201C41.0301 27.0545 41.3189 27.3836 41.5249 27.8074C41.7332 28.2311 41.8374 28.7271 41.8374 29.2953C41.8374 29.8587 41.7332 30.3511 41.5249 30.7725C41.3189 31.194 41.0301 31.5218 40.6584 31.7562C40.2891 31.9906 39.8582 32.1078 39.3658 32.1078ZM39.3658 31.3549C39.7398 31.3549 40.0476 31.2591 40.2891 31.0673C40.5305 30.8755 40.7093 30.6234 40.8253 30.3109C40.9413 29.9984 40.9993 29.6599 40.9993 29.2953C40.9993 28.9307 40.9413 28.591 40.8253 28.2761C40.7093 27.9612 40.5305 27.7067 40.2891 27.5126C40.0476 27.3185 39.7398 27.2214 39.3658 27.2214C38.9917 27.2214 38.6839 27.3185 38.4425 27.5126C38.201 27.7067 38.0223 27.9612 37.9062 28.2761C37.7902 28.591 37.7322 28.9307 37.7322 29.2953C37.7322 29.6599 37.7902 29.9984 37.9062 30.3109C38.0223 30.6234 38.201 30.8755 38.4425 31.0673C38.6839 31.2591 38.9917 31.3549 39.3658 31.3549ZM45.5456 26.5396V27.2498H42.6053V26.5396H45.5456ZM43.486 31.9941V25.7868C43.486 25.4743 43.5594 25.2138 43.7061 25.0055C43.8529 24.7972 44.0435 24.6409 44.2779 24.5368C44.5123 24.4326 44.7596 24.3805 45.0201 24.3805C45.226 24.3805 45.3941 24.3971 45.5243 24.4302C45.6545 24.4634 45.7516 24.4941 45.8155 24.5225L45.574 25.247C45.5314 25.2328 45.4722 25.215 45.3965 25.1937C45.3231 25.1724 45.226 25.1618 45.1053 25.1618C44.8283 25.1618 44.6283 25.2316 44.5051 25.3713C44.3844 25.5109 44.324 25.7157 44.324 25.9856V31.9941H43.486ZM46.7202 31.9941V26.5396H47.5582V31.9941H46.7202ZM47.1463 25.6305C46.983 25.6305 46.8421 25.5749 46.7237 25.4636C46.6077 25.3523 46.5497 25.2186 46.5497 25.0623C46.5497 24.9061 46.6077 24.7723 46.7237 24.661C46.8421 24.5498 46.983 24.4941 47.1463 24.4941C47.3097 24.4941 47.4493 24.5498 47.5653 24.661C47.6837 24.7723 47.7429 24.9061 47.7429 25.0623C47.7429 25.2186 47.6837 25.3523 47.5653 25.4636C47.4493 25.5749 47.3097 25.6305 47.1463 25.6305ZM49.9313 24.7214V31.9941H49.0932V24.7214H49.9313ZM53.7532 32.1078C53.2276 32.1078 52.7743 31.9918 52.3931 31.7598C52.0143 31.5254 51.7219 31.1987 51.516 30.7797C51.3124 30.3583 51.2106 29.8682 51.2106 29.3095C51.2106 28.7508 51.3124 28.2583 51.516 27.8322C51.7219 27.4037 52.0084 27.0699 52.3754 26.8308C52.7447 26.5893 53.1755 26.4686 53.668 26.4686C53.9521 26.4686 54.2326 26.5159 54.5096 26.6106C54.7866 26.7053 55.0387 26.8592 55.266 27.0723C55.4933 27.283 55.6744 27.5623 55.8093 27.9103C55.9442 28.2583 56.0117 28.6868 56.0117 29.1958V29.551H51.8072V28.8265H55.1594C55.1594 28.5188 55.0979 28.2441 54.9748 28.0027C54.854 27.7612 54.6812 27.5706 54.4563 27.4309C54.2338 27.2913 53.971 27.2214 53.668 27.2214C53.3342 27.2214 53.0453 27.3043 52.8015 27.47C52.56 27.6333 52.3742 27.8464 52.244 28.1092C52.1138 28.372 52.0487 28.6537 52.0487 28.9544V29.4373C52.0487 29.8493 52.1197 30.1984 52.2617 30.4849C52.4061 30.769 52.6062 30.9856 52.8619 31.1348C53.1175 31.2815 53.4147 31.3549 53.7532 31.3549C53.9734 31.3549 54.1722 31.3242 54.3498 31.2626C54.5297 31.1987 54.6848 31.104 54.815 30.9785C54.9452 30.8507 55.0458 30.6921 55.1168 30.5027L55.9265 30.7299C55.8413 31.0046 55.698 31.246 55.4968 31.4544C55.2956 31.6603 55.047 31.8213 54.7511 31.9373C54.4551 32.051 54.1225 32.1078 53.7532 32.1078Z" fill="black"/>
<ellipse cx="41.3854" cy="7.16977" rx="4.99824" ry="5.12119" fill="black"/>
<path d="M42.385 12.291H40.3858C35.4169 12.291 31.3889 16.4181 31.3889 21.5092C31.3889 22.0748 31.8365 22.5334 32.3886 22.5334H50.3822C50.9343 22.5334 51.3819 22.0748 51.3819 21.5092C51.3819 16.4181 47.3539 12.291 42.385 12.291Z" fill="black"/>
</svg>
