<svg width="45" height="45" viewBox="0 0 45 45" fill="none" xmlns="http://www.w3.org/2000/svg">
<path fill-rule="evenodd" clip-rule="evenodd" d="M5.625 7.5H39.375C40.4105 7.5 41.25 6.66053 41.25 5.625C41.25 4.58947 40.4105 3.75 39.375 3.75H5.625C4.58947 3.75 3.75 4.58947 3.75 5.625C3.75 6.66053 4.58947 7.5 5.625 7.5ZM41.25 37.5C41.25 38.5355 40.4105 39.375 39.375 39.375H5.625C4.58947 39.375 3.75 38.5355 3.75 37.5C3.75 36.4645 4.58947 35.625 5.625 35.625H39.375C40.4105 35.625 41.25 36.4645 41.25 37.5ZM5.625 20.625H39.375C40.4105 20.625 41.25 21.4645 41.25 22.5C41.25 23.5355 40.4105 24.375 39.375 24.375H5.625C4.58947 24.375 3.75 23.5355 3.75 22.5C3.75 21.4645 4.58947 20.625 5.625 20.625Z" fill="#231F20"/>
</svg>
