<?xml version="1.0" standalone="no"?>
<!DOCTYPE svg PUBLIC "-//W3C//DTD SVG 20010904//EN"
 "http://www.w3.org/TR/2001/REC-SVG-20010904/DTD/svg10.dtd">
<svg version="1.0" xmlns="http://www.w3.org/2000/svg"
 width="203.000000pt" height="248.000000pt" viewBox="0 0 203.000000 248.000000"
 preserveAspectRatio="xMidYMid meet">

<g transform="translate(0.000000,248.000000) scale(0.100000,-0.100000)"
fill="#000000" stroke="none">
<path d="M10 2088 l0 -382 35 59 c108 179 301 326 505 385 99 29 311 38 388
17 62 -17 73 -35 -97 160 l-123 143 -354 0 -354 0 0 -382z"/>
<path d="M1162 2305 l-143 -166 31 -37 c47 -60 49 -91 6 -175 -45 -91 -140
-208 -399 -494 -251 -277 -318 -359 -358 -440 -52 -103 -26 -137 89 -114 235
46 611 395 1060 983 53 70 106 130 117 133 11 3 68 5 127 3 l107 -3 -51 -65
c-187 -239 -435 -671 -503 -875 -53 -158 -35 -215 69 -215 42 0 62 6 100 32
86 56 164 190 173 298 6 68 16 71 51 20 28 -42 30 -127 3 -186 -22 -49 -73
-108 -125 -146 l-39 -28 271 0 272 0 0 820 0 820 -357 0 -358 0 -143 -165z"/>
<path d="M568 2096 c-264 -91 -450 -268 -465 -442 -4 -48 0 -67 19 -103 28
-54 58 -77 129 -101 l54 -19 -30 -11 c-44 -17 -139 -14 -177 6 -18 9 -45 28
-60 42 l-28 26 0 -342 0 -342 81 0 81 0 -31 35 c-43 49 -57 101 -42 161 33
129 129 257 451 599 215 229 249 268 302 349 55 85 50 143 -13 165 -63 22
-167 13 -271 -23z"/>
<path d="M675 949 c-38 -28 -110 -71 -160 -95 l-90 -44 158 0 c122 0 159 3
163 13 3 8 4 51 2 96 l-3 81 -70 -51z"/>
<path d="M1390 719 c-94 -38 -106 -155 -21 -198 20 -10 59 -24 88 -31 61 -14
82 -32 63 -55 -18 -22 -67 -19 -87 5 -14 16 -30 20 -76 20 -56 0 -58 -1 -52
-22 19 -63 81 -98 170 -98 108 0 169 45 169 124 0 65 -29 88 -164 128 -34 10
-45 18 -45 33 0 26 38 32 70 11 31 -20 125 -22 125 -2 0 23 -42 68 -76 82 -38
16 -127 17 -164 3z"/>
<path d="M1775 723 c-60 -16 -99 -77 -88 -137 7 -35 54 -73 106 -86 76 -20 90
-26 101 -43 23 -37 -57 -52 -89 -17 -26 28 -125 29 -125 1 0 -27 39 -71 76
-87 43 -18 145 -18 189 0 48 21 77 70 71 121 -6 51 -39 80 -114 100 -82 23
-102 33 -102 50 0 23 46 30 75 11 15 -10 46 -16 79 -16 l55 0 -11 30 c-17 49
-62 74 -138 77 -36 1 -74 -1 -85 -4z"/>
<path d="M10 583 c0 -162 11 -196 74 -227 52 -25 158 -26 210 -1 61 29 76 73
76 233 l0 132 -60 0 -60 0 0 -123 c0 -142 -10 -167 -64 -167 -52 0 -56 11 -56
157 l0 133 -60 0 -60 0 0 -137z"/>
<path d="M440 535 l0 -185 56 0 57 0 -6 118 -7 117 33 -115 33 -115 45 -3 45
-3 29 103 c15 57 31 108 34 115 3 6 4 -40 3 -103 l-4 -114 56 0 56 0 0 185 0
186 -77 -3 -77 -3 -32 -115 -31 -115 -21 70 c-12 39 -27 91 -34 118 l-12 47
-73 0 -73 0 0 -185z"/>
<path d="M1012 663 c-11 -32 -40 -115 -65 -185 l-46 -128 58 0 c52 0 59 3 69
25 10 23 17 25 71 25 54 0 59 -2 65 -25 6 -23 11 -25 67 -25 58 0 60 1 53 22
-4 13 -33 95 -64 183 l-58 160 -65 3 -65 3 -20 -58z m113 -156 l7 -37 -36 0
c-20 0 -36 3 -36 7 0 4 8 34 17 67 l17 60 12 -30 c7 -16 15 -46 19 -67z"/>
<path d="M395 256 c-46 -20 -67 -51 -73 -104 -8 -86 41 -142 123 -142 80 0
135 52 135 127 0 96 -96 158 -185 119z m89 -62 c20 -20 21 -97 2 -113 -25 -21
-69 -9 -84 22 -32 66 35 139 82 91z"/>
<path d="M10 135 l0 -125 95 0 95 0 0 30 0 30 -60 0 -60 0 0 95 0 95 -35 0
-35 0 0 -125z"/>
<path d="M701 193 c10 -38 26 -94 35 -125 17 -58 17 -58 55 -58 l38 0 12 74
c7 41 16 73 20 71 4 -3 10 -26 14 -52 13 -91 14 -93 54 -93 l36 0 36 125 37
125 -38 0 -37 0 -13 -62 c-20 -98 -27 -100 -41 -15 l-13 77 -37 0 -36 0 -13
-75 c-7 -41 -16 -73 -20 -70 -4 2 -12 36 -19 75 l-13 70 -38 0 -39 0 20 -67z"/>
<path d="M1150 135 l0 -125 110 0 110 0 0 30 0 30 -70 0 c-63 0 -70 2 -70 20
0 18 7 20 60 20 57 0 60 1 60 25 0 24 -3 25 -60 25 -53 0 -60 2 -60 20 0 18 7
20 68 20 l67 0 0 30 0 30 -107 0 -108 0 0 -125z"/>
<path d="M1500 135 l0 -125 100 0 100 0 0 30 0 30 -60 0 -60 0 0 95 0 95 -40
0 -40 0 0 -125z"/>
<path d="M1820 135 l0 -125 100 0 100 0 0 30 0 30 -60 0 -60 0 0 95 0 95 -40
0 -40 0 0 -125z"/>
</g>
</svg>
