<svg width="83" height="44" viewBox="0 0 83 44" fill="none" xmlns="http://www.w3.org/2000/svg">
<path fill-rule="evenodd" clip-rule="evenodd" d="M48.9828 2.01855H34.9877C33.3314 2.01855 31.9888 3.37416 31.9888 5.04639V19.1763C31.9888 20.8485 33.3314 22.2041 34.9877 22.2041H48.9828C50.6391 22.2041 51.9817 20.8485 51.9817 19.1763V5.04639C51.9817 3.37416 50.6391 2.01855 48.9828 2.01855ZM37.9067 17.5412C37.8591 17.6651 37.7878 17.7783 37.6968 17.8743C37.5996 17.9634 37.488 18.0351 37.3669 18.0862C37.2467 18.138 37.1176 18.1654 36.987 18.167C36.7223 18.1633 36.4688 18.0587 36.2773 17.8743C36.1863 17.7783 36.1149 17.6651 36.0673 17.5412C35.9604 17.297 35.9604 17.0185 36.0673 16.7742C36.1149 16.6503 36.1863 16.5371 36.2773 16.4411C36.5647 16.1547 36.9946 16.0711 37.3669 16.2292C37.488 16.2803 37.5996 16.352 37.6968 16.4411C37.7878 16.5371 37.8591 16.6503 37.9067 16.7742C38.0136 17.0185 38.0136 17.297 37.9067 17.5412ZM37.9267 12.4949C37.9555 12.4376 37.9757 12.3764 37.9867 12.3132C37.9916 12.246 37.9916 12.1785 37.9867 12.1113C37.983 11.8441 37.8794 11.5882 37.6968 11.3947C37.5996 11.3056 37.488 11.2339 37.3669 11.1828C36.9946 11.0247 36.5647 11.1084 36.2773 11.3947C36.1847 11.4895 36.1131 11.603 36.0673 11.7278C36.0161 11.8491 35.9889 11.9794 35.9874 12.1113C35.9858 12.3796 36.0901 12.6374 36.2773 12.8279C36.4688 13.0123 36.7223 13.1169 36.987 13.1206C37.1244 13.1217 37.2605 13.0942 37.3869 13.0399C37.508 12.9887 37.6196 12.9171 37.7168 12.8279L37.8367 12.6765C37.8745 12.6203 37.9048 12.5592 37.9267 12.4949ZM37.6968 7.78153C37.5996 7.87068 37.488 7.94236 37.3669 7.99348C37.2482 8.04998 37.1181 8.07763 36.987 8.07422C36.7223 8.0705 36.4688 7.96596 36.2773 7.78153C36.0901 7.59106 35.9858 7.33321 35.9874 7.06494C35.9889 6.93305 36.0161 6.80275 36.0673 6.68142C36.118 6.55911 36.189 6.44646 36.2773 6.34835C36.5647 6.06198 36.9946 5.97836 37.3669 6.13641C37.488 6.18752 37.5996 6.2592 37.6968 6.34835C37.7851 6.44646 37.8561 6.55911 37.9067 6.68142C37.9579 6.80275 37.9851 6.93305 37.9867 7.06494C37.983 7.33216 37.8794 7.58812 37.6968 7.78153ZM40.9856 18.167H46.9835C47.5356 18.167 47.9831 17.7151 47.9831 17.1577C47.9831 16.6003 47.5356 16.1484 46.9835 16.1484H40.9856C40.4335 16.1484 39.986 16.6003 39.986 17.1577C39.986 17.7151 40.4335 18.167 40.9856 18.167ZM46.9835 13.1206H40.9856C40.4335 13.1206 39.986 12.6687 39.986 12.1113C39.986 11.5539 40.4335 11.102 40.9856 11.102H46.9835C47.5356 11.102 47.9831 11.5539 47.9831 12.1113C47.9831 12.6687 47.5356 13.1206 46.9835 13.1206ZM40.9856 8.07422H46.9835C47.5356 8.07422 47.9831 7.62235 47.9831 7.06494C47.9831 6.50753 47.5356 6.05566 46.9835 6.05566H40.9856C40.4335 6.05566 39.986 6.50753 39.986 7.06494C39.986 7.62235 40.4335 8.07422 40.9856 8.07422Z" fill="black"/>
<path d="M11.2141 25.0376L13.3732 31.1597H13.4585L15.6175 25.0376H16.5408L13.8704 32.3103H12.9613L10.2908 25.0376H11.2141ZM17.56 32.3103V26.8558H18.3981V32.3103H17.56ZM17.9862 25.9467C17.8228 25.9467 17.6819 25.891 17.5636 25.7798C17.4476 25.6685 17.3896 25.5347 17.3896 25.3785C17.3896 25.2222 17.4476 25.0885 17.5636 24.9772C17.6819 24.8659 17.8228 24.8103 17.9862 24.8103C18.1495 24.8103 18.2892 24.8659 18.4052 24.9772C18.5236 25.0885 18.5827 25.2222 18.5827 25.3785C18.5827 25.5347 18.5236 25.6685 18.4052 25.7798C18.2892 25.891 18.1495 25.9467 17.9862 25.9467ZM22.22 32.4239C21.6944 32.4239 21.2411 32.3079 20.8599 32.0759C20.4811 31.8416 20.1887 31.5148 19.9828 31.0958C19.7792 30.6744 19.6774 30.1844 19.6774 29.6256C19.6774 29.0669 19.7792 28.5745 19.9828 28.1484C20.1887 27.7199 20.4752 27.3861 20.8422 27.147C21.2115 26.9055 21.6423 26.7847 22.1348 26.7847C22.4189 26.7847 22.6994 26.8321 22.9764 26.9268C23.2534 27.0215 23.5055 27.1754 23.7328 27.3884C23.96 27.5991 24.1412 27.8785 24.2761 28.2265C24.411 28.5745 24.4785 29.003 24.4785 29.512V29.8671H20.274V29.1427H23.6262C23.6262 28.8349 23.5647 28.5603 23.4416 28.3188C23.3208 28.0773 23.148 27.8868 22.9231 27.7471C22.7006 27.6074 22.4378 27.5376 22.1348 27.5376C21.801 27.5376 21.5121 27.6204 21.2683 27.7862C21.0268 27.9495 20.841 28.1626 20.7108 28.4254C20.5806 28.6881 20.5154 28.9699 20.5154 29.2705V29.7535C20.5154 30.1654 20.5865 30.5146 20.7285 30.8011C20.8729 31.0852 21.073 31.3018 21.3287 31.4509C21.5843 31.5977 21.8815 31.6711 22.22 31.6711C22.4402 31.6711 22.639 31.6403 22.8166 31.5788C22.9965 31.5148 23.1516 31.4202 23.2818 31.2947C23.412 31.1668 23.5126 31.0082 23.5836 30.8188L24.3933 31.0461C24.3081 31.3207 24.1648 31.5622 23.9636 31.7705C23.7624 31.9765 23.5138 32.1375 23.2179 32.2535C22.9219 32.3671 22.5893 32.4239 22.22 32.4239ZM26.9892 32.3103L25.3272 26.8558H26.2079L27.3869 31.0319H27.4437L28.6085 26.8558H29.5034L30.6539 31.0177H30.7108L31.8897 26.8558H32.7704L31.1085 32.3103H30.2846L29.0914 28.12H29.0062L27.813 32.3103H26.9892ZM36.8045 32.3103V25.0376H39.2619C39.8301 25.0376 40.2965 25.1346 40.661 25.3288C41.0256 25.5205 41.2955 25.7845 41.4707 26.1207C41.6459 26.4568 41.7335 26.8392 41.7335 27.2677C41.7335 27.6962 41.6459 28.0762 41.4707 28.4076C41.2955 28.739 41.0268 28.9995 40.6646 29.1889C40.3024 29.3759 39.8395 29.4694 39.2761 29.4694H37.2875V28.6739H39.2477C39.6359 28.6739 39.9484 28.6171 40.1852 28.5035C40.4243 28.3898 40.5971 28.2289 40.7037 28.0205C40.8126 27.8098 40.867 27.5589 40.867 27.2677C40.867 26.9765 40.8126 26.722 40.7037 26.5042C40.5948 26.2864 40.4208 26.1183 40.1816 25.9999C39.9425 25.8792 39.6265 25.8188 39.2335 25.8188H37.6852V32.3103H36.8045ZM40.2278 29.0433L42.0176 32.3103H40.9949L39.2335 29.0433H40.2278ZM45.3157 32.4239C44.7901 32.4239 44.3368 32.3079 43.9556 32.0759C43.5768 31.8416 43.2844 31.5148 43.0785 31.0958C42.8749 30.6744 42.7731 30.1844 42.7731 29.6256C42.7731 29.0669 42.8749 28.5745 43.0785 28.1484C43.2844 27.7199 43.5709 27.3861 43.9379 27.147C44.3072 26.9055 44.738 26.7847 45.2305 26.7847C45.5146 26.7847 45.7951 26.8321 46.0721 26.9268C46.3491 27.0215 46.6012 27.1754 46.8285 27.3884C47.0558 27.5991 47.2369 27.8785 47.3718 28.2265C47.5067 28.5745 47.5742 29.003 47.5742 29.512V29.8671H43.3697V29.1427H46.7219C46.7219 28.8349 46.6604 28.5603 46.5373 28.3188C46.4165 28.0773 46.2437 27.8868 46.0188 27.7471C45.7963 27.6074 45.5335 27.5376 45.2305 27.5376C44.8967 27.5376 44.6078 27.6204 44.364 27.7862C44.1225 27.9495 43.9367 28.1626 43.8065 28.4254C43.6763 28.6881 43.6112 28.9699 43.6112 29.2705V29.7535C43.6112 30.1654 43.6822 30.5146 43.8242 30.8011C43.9686 31.0852 44.1687 31.3018 44.4244 31.4509C44.68 31.5977 44.9772 31.6711 45.3157 31.6711C45.5359 31.6711 45.7347 31.6403 45.9123 31.5788C46.0922 31.5148 46.2473 31.4202 46.3775 31.2947C46.5077 31.1668 46.6083 31.0082 46.6793 30.8188L47.489 31.0461C47.4038 31.3207 47.2605 31.5622 47.0593 31.7705C46.8581 31.9765 46.6095 32.1375 46.3136 32.2535C46.0176 32.3671 45.685 32.4239 45.3157 32.4239ZM48.8491 34.3558V26.8558H49.6587V27.7222H49.7582C49.8197 27.6275 49.9049 27.5068 50.0138 27.36C50.1251 27.2109 50.2837 27.0783 50.4897 26.9623C50.698 26.8439 50.9798 26.7847 51.3349 26.7847C51.7942 26.7847 52.199 26.8996 52.5494 27.1292C52.8997 27.3588 53.1732 27.6844 53.3697 28.1058C53.5662 28.5272 53.6644 29.0243 53.6644 29.5972C53.6644 30.1749 53.5662 30.6756 53.3697 31.0994C53.1732 31.5208 52.9009 31.8475 52.5529 32.0795C52.2049 32.3091 51.8036 32.4239 51.3491 32.4239C50.9987 32.4239 50.7182 32.3659 50.5075 32.2499C50.2968 32.1316 50.1346 31.9978 50.021 31.8487C49.9073 31.6971 49.8197 31.5717 49.7582 31.4722H49.6871V34.3558H48.8491ZM49.6729 29.583C49.6729 29.995 49.7333 30.3584 49.854 30.6732C49.9748 30.9857 50.1512 31.2308 50.3832 31.4083C50.6152 31.5835 50.8993 31.6711 51.2354 31.6711C51.5858 31.6711 51.8782 31.5788 52.1126 31.3941C52.3493 31.2071 52.5269 30.9561 52.6452 30.6413C52.766 30.324 52.8263 29.9713 52.8263 29.583C52.8263 29.1995 52.7672 28.8539 52.6488 28.5461C52.5328 28.236 52.3564 27.9909 52.1197 27.811C51.8853 27.6287 51.5906 27.5376 51.2354 27.5376C50.8945 27.5376 50.6081 27.624 50.3761 27.7968C50.1441 27.9673 49.9689 28.2064 49.8505 28.5141C49.7321 28.8195 49.6729 29.1758 49.6729 29.583ZM57.1587 32.4239C56.6663 32.4239 56.2343 32.3068 55.8626 32.0724C55.4933 31.838 55.2044 31.5101 54.9961 31.0887C54.7901 30.6673 54.6871 30.1749 54.6871 29.6114C54.6871 29.0433 54.7901 28.5473 54.9961 28.1235C55.2044 27.6997 55.4933 27.3707 55.8626 27.1363C56.2343 26.9019 56.6663 26.7847 57.1587 26.7847C57.6512 26.7847 58.082 26.9019 58.4513 27.1363C58.823 27.3707 59.1119 27.6997 59.3178 28.1235C59.5262 28.5473 59.6303 29.0433 59.6303 29.6114C59.6303 30.1749 59.5262 30.6673 59.3178 31.0887C59.1119 31.5101 58.823 31.838 58.4513 32.0724C58.082 32.3068 57.6512 32.4239 57.1587 32.4239ZM57.1587 31.6711C57.5328 31.6711 57.8406 31.5752 58.082 31.3835C58.3235 31.1917 58.5022 30.9396 58.6183 30.6271C58.7343 30.3146 58.7923 29.976 58.7923 29.6114C58.7923 29.2469 58.7343 28.9071 58.6183 28.5923C58.5022 28.2774 58.3235 28.0229 58.082 27.8288C57.8406 27.6346 57.5328 27.5376 57.1587 27.5376C56.7847 27.5376 56.4769 27.6346 56.2354 27.8288C55.994 28.0229 55.8152 28.2774 55.6992 28.5923C55.5832 28.9071 55.5252 29.2469 55.5252 29.6114C55.5252 29.976 55.5832 30.3146 55.6992 30.6271C55.8152 30.9396 55.994 31.1917 56.2354 31.3835C56.4769 31.5752 56.7847 31.6711 57.1587 31.6711ZM60.9096 32.3103V26.8558H61.7193V27.6796H61.7761C61.8755 27.4097 62.0555 27.1907 62.3159 27.0227C62.5763 26.8546 62.8699 26.7705 63.1966 26.7705C63.2581 26.7705 63.335 26.7717 63.4274 26.7741C63.5197 26.7764 63.5895 26.78 63.6369 26.7847V27.637C63.6085 27.6299 63.5434 27.6193 63.4416 27.605C63.3422 27.5885 63.2368 27.5802 63.1255 27.5802C62.8604 27.5802 62.6236 27.6358 62.4153 27.7471C62.2093 27.856 62.046 28.0075 61.9252 28.2016C61.8069 28.3934 61.7477 28.6124 61.7477 28.8586V32.3103H60.9096ZM67.3443 26.8558V27.566H64.5176V26.8558H67.3443ZM65.3414 25.5489H66.1795V30.7478C66.1795 30.9845 66.2138 31.1621 66.2825 31.2805C66.3535 31.3965 66.4435 31.4746 66.5524 31.5148C66.6636 31.5527 66.7808 31.5717 66.9039 31.5717C66.9963 31.5717 67.072 31.5669 67.1312 31.5575C67.1904 31.5456 67.2377 31.5362 67.2733 31.5291L67.4437 32.2819C67.3869 32.3032 67.3076 32.3245 67.2058 32.3458C67.104 32.3695 66.975 32.3813 66.8187 32.3813C66.582 32.3813 66.35 32.3304 66.1227 32.2286C65.8978 32.1268 65.7108 31.9718 65.5616 31.7634C65.4148 31.5551 65.3414 31.2923 65.3414 30.9751V25.5489ZM72.3709 28.0773L71.6181 28.2904C71.5707 28.1649 71.5009 28.043 71.4086 27.9246C71.3186 27.8039 71.1955 27.7045 71.0392 27.6264C70.883 27.5482 70.6829 27.5092 70.4391 27.5092C70.1053 27.5092 69.8271 27.5861 69.6046 27.74C69.3844 27.8915 69.2743 28.0845 69.2743 28.3188C69.2743 28.5272 69.3501 28.6917 69.5016 28.8124C69.6531 28.9332 69.8899 29.0338 70.2118 29.1143L71.0215 29.3131C71.5092 29.4315 71.8726 29.6126 72.1117 29.8565C72.3508 30.0979 72.4703 30.4093 72.4703 30.7904C72.4703 31.1029 72.3804 31.3823 72.2005 31.6285C72.0229 31.8747 71.7743 32.0688 71.4547 32.2109C71.1351 32.3529 70.7634 32.4239 70.3397 32.4239C69.7833 32.4239 69.3229 32.3032 68.9583 32.0617C68.5937 31.8202 68.3629 31.4675 68.2658 31.0035L69.0613 30.8046C69.137 31.0982 69.2802 31.3184 69.4909 31.4651C69.704 31.6119 69.9822 31.6853 70.3255 31.6853C70.7161 31.6853 71.0262 31.6024 71.2559 31.4367C71.4879 31.2686 71.6039 31.0674 71.6039 30.833C71.6039 30.6436 71.5376 30.485 71.405 30.3572C71.2724 30.227 71.0688 30.1299 70.7942 30.066L69.8851 29.8529C69.3856 29.7345 69.0186 29.5511 68.7843 29.3025C68.5523 29.0515 68.4363 28.7379 68.4363 28.3614C68.4363 28.0537 68.5227 27.7814 68.6955 27.5447C68.8707 27.3079 69.1086 27.1221 69.4093 26.9871C69.7123 26.8522 70.0556 26.7847 70.4391 26.7847C70.9789 26.7847 71.4026 26.9031 71.7104 27.1398C72.0205 27.3766 72.2407 27.6891 72.3709 28.0773Z" fill="black"/>
</svg>
