<svg width="83" height="44" viewBox="0 0 83 44" fill="none" xmlns="http://www.w3.org/2000/svg">
<path fill-rule="evenodd" clip-rule="evenodd" d="M48.9827 2.01147H34.9877C33.3314 2.01147 31.9887 3.36231 31.9887 5.02865V19.1088C31.9887 20.7752 33.3314 22.126 34.9877 22.126H48.9827C50.639 22.126 51.9817 20.7752 51.9817 19.1088V5.02865C51.9817 3.36231 50.639 2.01147 48.9827 2.01147ZM37.9066 17.4795C37.859 17.603 37.7877 17.7158 37.6967 17.8114C37.5995 17.9003 37.488 17.9717 37.3668 18.0226C37.2466 18.0742 37.1176 18.1015 36.987 18.1031C36.7223 18.0994 36.4688 17.9952 36.2772 17.8114C36.1862 17.7158 36.1149 17.603 36.0673 17.4795C35.9603 17.2361 35.9603 16.9586 36.0673 16.7152C36.1149 16.5917 36.1862 16.479 36.2772 16.3833C36.5647 16.0979 36.9946 16.0146 37.3668 16.1721C37.488 16.223 37.5995 16.2945 37.6967 16.3833C37.7877 16.479 37.859 16.5917 37.9066 16.7152C38.0136 16.9586 38.0136 17.2361 37.9066 17.4795ZM37.9266 12.4509C37.9554 12.3939 37.9757 12.3329 37.9866 12.2699C37.9915 12.2029 37.9915 12.1357 37.9866 12.0687C37.9829 11.8025 37.8794 11.5474 37.6967 11.3547C37.5995 11.2658 37.488 11.1944 37.3668 11.1435C36.9946 10.986 36.5647 11.0693 36.2772 11.3547C36.1846 11.4491 36.1131 11.5622 36.0673 11.6866C36.0161 11.8075 35.9889 11.9373 35.9873 12.0687C35.9858 12.3361 36.0901 12.593 36.2772 12.7828C36.4688 12.9666 36.7223 13.0708 36.987 13.0745C37.1243 13.0756 37.2604 13.0482 37.3868 12.994C37.508 12.9431 37.6195 12.8716 37.7167 12.7828L37.8367 12.6319C37.8745 12.5759 37.9047 12.515 37.9266 12.4509ZM37.6967 7.75417C37.5995 7.84301 37.488 7.91444 37.3668 7.96537C37.2482 8.02168 37.1181 8.04923 36.987 8.04583C36.7223 8.04213 36.4688 7.93795 36.2772 7.75417C36.0901 7.56437 35.9858 7.30743 35.9873 7.04011C35.9889 6.90868 36.0161 6.77884 36.0673 6.65793C36.1179 6.53605 36.1889 6.4238 36.2772 6.32604C36.5647 6.04067 36.9946 5.95734 37.3668 6.11484C37.488 6.16577 37.5995 6.2372 37.6967 6.32604C37.785 6.4238 37.856 6.53605 37.9066 6.65793C37.9578 6.77884 37.985 6.90868 37.9866 7.04011C37.9829 7.30639 37.8794 7.56144 37.6967 7.75417ZM40.9855 18.1031H46.9834C47.5355 18.1031 47.9831 17.6528 47.9831 17.0974C47.9831 16.5419 47.5355 16.0916 46.9834 16.0916H40.9855C40.4335 16.0916 39.9859 16.5419 39.9859 17.0974C39.9859 17.6528 40.4335 18.1031 40.9855 18.1031ZM46.9834 13.0745H40.9855C40.4335 13.0745 39.9859 12.6242 39.9859 12.0687C39.9859 11.5133 40.4335 11.063 40.9855 11.063H46.9834C47.5355 11.063 47.9831 11.5133 47.9831 12.0687C47.9831 12.6242 47.5355 13.0745 46.9834 13.0745ZM40.9855 8.04583H46.9834C47.5355 8.04583 47.9831 7.59555 47.9831 7.04011C47.9831 6.48466 47.5355 6.03438 46.9834 6.03438H40.9855C40.4335 6.03438 39.9859 6.48466 39.9859 7.04011C39.9859 7.59555 40.4335 8.04583 40.9855 8.04583Z" fill="black"/>
<path d="M14.7591 24.9591L16.9181 31.0812H17.0034L19.1625 24.9591H20.0858L17.4153 32.2318H16.5062L13.8358 24.9591H14.7591ZM21.1049 32.2318V26.7773H21.943V32.2318H21.1049ZM21.5311 25.8682C21.3677 25.8682 21.2269 25.8125 21.1085 25.7013C20.9925 25.59 20.9345 25.4562 20.9345 25.3C20.9345 25.1437 20.9925 25.01 21.1085 24.8987C21.2269 24.7874 21.3677 24.7318 21.5311 24.7318C21.6944 24.7318 21.8341 24.7874 21.9501 24.8987C22.0685 25.01 22.1277 25.1437 22.1277 25.3C22.1277 25.4562 22.0685 25.59 21.9501 25.7013C21.8341 25.8125 21.6944 25.8682 21.5311 25.8682ZM25.7649 32.3454C25.2393 32.3454 24.786 32.2294 24.4048 31.9974C24.026 31.7631 23.7337 31.4364 23.5277 31.0173C23.3241 30.5959 23.2223 30.1059 23.2223 29.5472C23.2223 28.9884 23.3241 28.496 23.5277 28.0699C23.7337 27.6414 24.0201 27.3076 24.3871 27.0685C24.7564 26.827 25.1873 26.7062 25.6797 26.7062C25.9638 26.7062 26.2443 26.7536 26.5213 26.8483C26.7983 26.943 27.0504 27.0969 27.2777 27.3099C27.505 27.5206 27.6861 27.8 27.821 28.148C27.956 28.496 28.0234 28.9245 28.0234 29.4335V29.7886H23.8189V29.0642H27.1712C27.1712 28.7564 27.1096 28.4818 26.9865 28.2403C26.8658 27.9989 26.6929 27.8083 26.468 27.6686C26.2455 27.5289 25.9827 27.4591 25.6797 27.4591C25.3459 27.4591 25.0571 27.5419 24.8132 27.7077C24.5717 27.871 24.3859 28.0841 24.2557 28.3469C24.1255 28.6097 24.0604 28.8914 24.0604 29.192V29.675C24.0604 30.0869 24.1314 30.4361 24.2734 30.7226C24.4179 31.0067 24.6179 31.2233 24.8736 31.3724C25.1293 31.5192 25.4264 31.5926 25.7649 31.5926C25.9851 31.5926 26.1839 31.5618 26.3615 31.5003C26.5414 31.4364 26.6965 31.3417 26.8267 31.2162C26.9569 31.0883 27.0575 30.9297 27.1286 30.7403L27.9382 30.9676C27.853 31.2422 27.7098 31.4837 27.5085 31.692C27.3073 31.898 27.0587 32.059 26.7628 32.175C26.4669 32.2886 26.1342 32.3454 25.7649 32.3454ZM30.5341 32.2318L28.8722 26.7773H29.7528L30.9318 30.9534H30.9886L32.1534 26.7773H33.0483L34.1989 30.9392H34.2557L35.4347 26.7773H36.3153L34.6534 32.2318H33.8295L32.6364 28.0415H32.5511L31.358 32.2318H30.5341ZM41.2301 24.9591V32.2318H40.3494V24.9591H41.2301ZM46.7459 27.9989L45.9931 28.2119C45.9457 28.0865 45.8759 27.9645 45.7836 27.8462C45.6936 27.7254 45.5705 27.626 45.4142 27.5479C45.258 27.4697 45.0579 27.4307 44.8141 27.4307C44.4803 27.4307 44.2021 27.5076 43.9796 27.6615C43.7594 27.813 43.6493 28.006 43.6493 28.2403C43.6493 28.4487 43.7251 28.6132 43.8766 28.7339C44.0281 28.8547 44.2649 28.9553 44.5868 29.0358L45.3965 29.2347C45.8842 29.353 46.2476 29.5341 46.4867 29.778C46.7258 30.0195 46.8453 30.3308 46.8453 30.7119C46.8453 31.0244 46.7554 31.3038 46.5755 31.55C46.3979 31.7962 46.1493 31.9903 45.8297 32.1324C45.5101 32.2744 45.1384 32.3454 44.7147 32.3454C44.1583 32.3454 43.6979 32.2247 43.3333 31.9832C42.9687 31.7418 42.7379 31.389 42.6408 30.925L43.4363 30.7261C43.512 31.0197 43.6552 31.2399 43.8659 31.3866C44.079 31.5334 44.3572 31.6068 44.7005 31.6068C45.0911 31.6068 45.4012 31.524 45.6309 31.3582C45.8629 31.1901 45.9789 30.9889 45.9789 30.7545C45.9789 30.5651 45.9126 30.4065 45.78 30.2787C45.6474 30.1485 45.4438 30.0514 45.1692 29.9875L44.2601 29.7744C43.7606 29.6561 43.3936 29.4726 43.1593 29.224C42.9273 28.9731 42.8113 28.6594 42.8113 28.2829C42.8113 27.9752 42.8977 27.7029 43.0705 27.4662C43.2457 27.2294 43.4836 27.0436 43.7843 26.9087C44.0873 26.7737 44.4306 26.7062 44.8141 26.7062C45.3539 26.7062 45.7776 26.8246 46.0854 27.0614C46.3955 27.2981 46.6157 27.6106 46.7459 27.9989ZM51.9705 27.9989L51.2177 28.2119C51.1703 28.0865 51.1005 27.9645 51.0082 27.8462C50.9182 27.7254 50.7951 27.626 50.6388 27.5479C50.4826 27.4697 50.2826 27.4307 50.0387 27.4307C49.7049 27.4307 49.4267 27.5076 49.2042 27.6615C48.984 27.813 48.8739 28.006 48.8739 28.2403C48.8739 28.4487 48.9497 28.6132 49.1012 28.7339C49.2527 28.8547 49.4895 28.9553 49.8114 29.0358L50.6211 29.2347C51.1088 29.353 51.4722 29.5341 51.7113 29.778C51.9504 30.0195 52.07 30.3308 52.07 30.7119C52.07 31.0244 51.98 31.3038 51.8001 31.55C51.6225 31.7962 51.3739 31.9903 51.0543 32.1324C50.7347 32.2744 50.363 32.3454 49.9393 32.3454C49.3829 32.3454 48.9225 32.2247 48.5579 31.9832C48.1933 31.7418 47.9625 31.389 47.8654 30.925L48.6609 30.7261C48.7366 31.0197 48.8799 31.2399 49.0906 31.3866C49.3036 31.5334 49.5818 31.6068 49.9251 31.6068C50.3157 31.6068 50.6258 31.524 50.8555 31.3582C51.0875 31.1901 51.2035 30.9889 51.2035 30.7545C51.2035 30.5651 51.1372 30.4065 51.0046 30.2787C50.872 30.1485 50.6684 30.0514 50.3938 29.9875L49.4847 29.7744C48.9852 29.6561 48.6183 29.4726 48.3839 29.224C48.1519 28.9731 48.0359 28.6594 48.0359 28.2829C48.0359 27.9752 48.1223 27.7029 48.2951 27.4662C48.4703 27.2294 48.7082 27.0436 49.0089 26.9087C49.3119 26.7737 49.6552 26.7062 50.0387 26.7062C50.5785 26.7062 51.0022 26.8246 51.31 27.0614C51.6201 27.2981 51.8403 27.6106 51.9705 27.9989ZM56.769 30.0017V26.7773H57.6071V32.2318H56.769V31.3085H56.7122C56.5843 31.5855 56.3855 31.8211 56.1156 32.0152C55.8457 32.207 55.5048 32.3028 55.0929 32.3028C54.752 32.3028 54.4489 32.2283 54.1838 32.0791C53.9186 31.9276 53.7103 31.7003 53.5588 31.3973C53.4073 31.0919 53.3315 30.7072 53.3315 30.2432V26.7773H54.1696V30.1864C54.1696 30.5841 54.2808 30.9013 54.5034 31.1381C54.7283 31.3748 55.0147 31.4932 55.3627 31.4932C55.5711 31.4932 55.783 31.4399 55.9984 31.3334C56.2162 31.2268 56.3985 31.0635 56.5453 30.8433C56.6944 30.6231 56.769 30.3426 56.769 30.0017ZM61.429 32.3454C60.9034 32.3454 60.45 32.2294 60.0689 31.9974C59.6901 31.7631 59.3977 31.4364 59.1918 31.0173C58.9882 30.5959 58.8864 30.1059 58.8864 29.5472C58.8864 28.9884 58.9882 28.496 59.1918 28.0699C59.3977 27.6414 59.6842 27.3076 60.0511 27.0685C60.4205 26.827 60.8513 26.7062 61.3438 26.7062C61.6278 26.7062 61.9084 26.7536 62.1854 26.8483C62.4624 26.943 62.7145 27.0969 62.9418 27.3099C63.169 27.5206 63.3501 27.8 63.4851 28.148C63.62 28.496 63.6875 28.9245 63.6875 29.4335V29.7886H59.483V29.0642H62.8352C62.8352 28.7564 62.7737 28.4818 62.6506 28.2403C62.5298 27.9989 62.357 27.8083 62.1321 27.6686C61.9096 27.5289 61.6468 27.4591 61.3438 27.4591C61.0099 27.4591 60.7211 27.5419 60.4773 27.7077C60.2358 27.871 60.05 28.0841 59.9197 28.3469C59.7895 28.6097 59.7244 28.8914 59.7244 29.192V29.675C59.7244 30.0869 59.7955 30.4361 59.9375 30.7226C60.0819 31.0067 60.282 31.2233 60.5376 31.3724C60.7933 31.5192 61.0904 31.5926 61.429 31.5926C61.6491 31.5926 61.848 31.5618 62.0256 31.5003C62.2055 31.4364 62.3606 31.3417 62.4908 31.2162C62.621 31.0883 62.7216 30.9297 62.7926 30.7403L63.6023 30.9676C63.517 31.2422 63.3738 31.4837 63.1726 31.692C62.9714 31.898 62.7228 32.059 62.4268 32.175C62.1309 32.2886 61.7983 32.3454 61.429 32.3454ZM68.826 27.9989L68.0732 28.2119C68.0258 28.0865 67.956 27.9645 67.8636 27.8462C67.7737 27.7254 67.6506 27.626 67.4943 27.5479C67.3381 27.4697 67.138 27.4307 66.8942 27.4307C66.5604 27.4307 66.2822 27.5076 66.0597 27.6615C65.8395 27.813 65.7294 28.006 65.7294 28.2403C65.7294 28.4487 65.8052 28.6132 65.9567 28.7339C66.1082 28.8547 66.3449 28.9553 66.6669 29.0358L67.4766 29.2347C67.9643 29.353 68.3277 29.5341 68.5668 29.778C68.8059 30.0195 68.9254 30.3308 68.9254 30.7119C68.9254 31.0244 68.8355 31.3038 68.6555 31.55C68.478 31.7962 68.2294 31.9903 67.9098 32.1324C67.5902 32.2744 67.2185 32.3454 66.7947 32.3454C66.2384 32.3454 65.7779 32.2247 65.4134 31.9832C65.0488 31.7418 64.8179 31.389 64.7209 30.925L65.5163 30.7261C65.5921 31.0197 65.7353 31.2399 65.946 31.3866C66.1591 31.5334 66.4373 31.6068 66.7805 31.6068C67.1712 31.6068 67.4813 31.524 67.7109 31.3582C67.9429 31.1901 68.0589 30.9889 68.0589 30.7545C68.0589 30.5651 67.9927 30.4065 67.8601 30.2787C67.7275 30.1485 67.5239 30.0514 67.2493 29.9875L66.3402 29.7744C65.8407 29.6561 65.4737 29.4726 65.2393 29.224C65.0073 28.9731 64.8913 28.6594 64.8913 28.2829C64.8913 27.9752 64.9777 27.7029 65.1506 27.4662C65.3258 27.2294 65.5637 27.0436 65.8643 26.9087C66.1674 26.7737 66.5107 26.7062 66.8942 26.7062C67.4339 26.7062 67.8577 26.8246 68.1655 27.0614C68.4756 27.2981 68.6958 27.6106 68.826 27.9989Z" fill="black"/>
</svg>
